<svg id="Слой_1" data-name="Слой 1" xmlns="http://www.w3.org/2000/svg" viewBox="0 0 2500 2000"><defs><style>.cls-1{fill:#fff;}.cls-2{fill:#e2dad7;}.cls-3{fill:#24496b;}.cls-4{fill:#ffba0e;}.cls-5{fill:#da693e;}.cls-6{fill:#f68e6f;}.cls-7{fill:#25707b;}</style></defs><path class="cls-1" d="M605.12,888.86c-28.69,0-55.76-9.66-80.85-28.9-33-25.33-60.41-57.35-86.9-88.32-33.74-39.44-61.34-84.75-79.8-131-20.95-52.5-29.24-103.19-24.64-150.66h0a213.3,213.3,0,0,1,29.53-89.74c17.24-28.35,40.61-50.37,67.59-63.7,25.24-12.46,52.72-17.35,76.27-20.5,26.61-3.55,57.85-6.06,87.79,2.19,57.9,15.94,99.27,69.74,129.47,109,4.22,5.49,8.84,11.16,13.73,17.17C757.38,469,780.13,497,785.83,525.62c8.58,43.1,13.81,83.66,15.13,117.3a257.43,257.43,0,0,1-63.71,178.84c-25.72,29.1-56.31,49.86-88.48,60A144.65,144.65,0,0,1,605.12,888.86Z"/><path class="cls-1" d="M1298.5,805.5l61,56S1397,787,1375.23,757.23s-54.15-79.8-54.15-79.8-6.49-12.6-15.54-5.77c0,0-8.14-24-14.59-12.6,0,0-5.25,7.89,2.65,27.17,0,0-3.1-13.73-10.1-7.73s15.37,64,24.18,97.52C1307.68,776,1315.5,794.5,1298.5,805.5Z"/><path id="background" class="cls-2" d="M2101.51,1547.46c.55-14.44-11.43-27.07-35.83-29.5-20.87-2.08-66-1-64.51-32,1.79-37.27,76-39.38,100.76-41,49.84-3.29,134.18-21,96.86-89.68-16.5-30.37-45.75-52.29-77.5-66s-66.13-19.86-100.29-25.16A2235.12,2235.12,0,0,0,1778.07,1240q-62-2.76-124.16-2.07c-34.31.39-70.31,5.14-104.05-3-19.17-4.61-33.52-11.43-53.91-12.35-59-2.67-118.21-3.86-177.28-5.76-116.78-3.74-233.58-7-350.42-7.22q-182.85-.36-365.43,11.68-27.44,1.82-54.87,3.91c-47.34,3.61-96,7-142,19.58-22.55,6.16-38.23,25.62-21.21,45.89,19.09,22.74,60.91,28.43,88.27,31.31,24,2.51,48.3,3.16,72,8.07,8.86,1.83,54.2,11,28,25.11-5.47,3-11.94,3.24-18.16,3.53-81.78,3.8-170.46,14.93-246.05,47.09-37.46,15.94-76.59,41.22-84.65,81.14-14.45,71.62,105,99.57,156.41,107.88,53.48,8.64,107.7,11.5,161.8,14.35,275.59,14.53,552.44,29,828.35,26.66,123.69-1,247.48-2.81,370.92-11.56,98.46-7,193.82-16.73,291.51-31,14.9-2.19,30.23-4.51,43.24-12.11C2092.7,1571.57,2101.07,1559,2101.51,1547.46Z"/><g id="women"><path class="cls-3" d="M1697.56,490.74q-1.24-5.73-3-11.26a1.43,1.43,0,0,1-.87.63c.1.5.2,1,.3,1.43a1,1,0,0,1,.5.73c.4,2.19.7,4.35.93,6.54a1.26,1.26,0,0,1,.7,1.07,123,123,0,0,1,.16,15.24,42,42,0,0,1,0,6.44c.13.3.23.6.33.86.33-1.19.7-2.39,1-3.58a1,1,0,0,1,.4-.6A134.63,134.63,0,0,0,1697.56,490.74Zm-10.09-35.5a1.56,1.56,0,0,1-1.1.87,94.38,94.38,0,0,1,6.44,12A92.64,92.64,0,0,0,1687.47,455.24Zm-1.93-4c-7.34-15.44-19.46-28.49-33.87-38.16-25.84-17.3-57.18-22.05-87.73-20.25-19.43,1.13-38.59,4.71-57.52,9a.93.93,0,0,0-.46.2c-.07,0-.1-.1-.2-.1-27.13-10.69-56.75-3.85-82,8.77-25.77,12.88-48.65,31.94-68.77,52.36-40.48,41.15-70.37,91.55-94.24,143.79-.73,1.59-1.46,3.18-2.16,4.81a2.78,2.78,0,0,0-.23.5v.07c-25.51,56.75-44.24,116.15-65.62,174.5-11.62,31.64-24,63.05-38.55,93.47-3.49,7.27-7.41,14.38-10.8,21.72-2.92,6.34-4.28,12.58-2.72,19.46.7,3.15,1.56,6.31,2.53,9.43,1.62,5.28,3.48,10.52,5.11,15.74,1.13,3.65,2.26,7.3,3.39,11l.49,1.69c.4,1.2.77,2.39,1.17,3.62.59-.8,1.23-1.59,1.89-2.39-.4-1.19-.76-2.42-1.13-3.62-.17-.5-.33-1-.46-1.53-1.63-5.18-3.26-10.36-4.85-15.57-1.13-3.62-2.66-7.47-3.92-11.39a42,42,0,0,1-2.52-13.41,31.18,31.18,0,0,1,3.32-12.32c1.39-3,3-5.85,4.48-8.67.1-.17.16-.33.26-.5.3-.53.57-1.1.83-1.63,3.13-6.27,6.18-12.58,9.1-19,.4-.83.8-1.69,1.2-2.55.53-1.13,1-2.26,1.56-3.42q5.38-11.87,10.39-23.91c1-2.33,2-4.69,2.89-7,1.26-3,2.46-6,3.65-9,.64-1.56,1.23-3.09,1.83-4.65q1.89-4.74,3.69-9.46c3.18-8.21,6.27-16.48,9.29-24.74.44-1.2.9-2.39,1.33-3.59q5.73-15.84,11.33-31.71c.06-.17.13-.37.2-.53a.15.15,0,0,0,0-.07c0-.1.07-.17.1-.27,1.06-3,2.12-6,3.22-9.09s2.12-6.08,3.19-9.1a5.3,5.3,0,0,0,.23-.67c1.06-3,2.12-6,3.19-9,2.19-6.17,4.38-12.38,6.61-18.52a.12.12,0,0,1,0-.1q3-8.43,6.08-16.81,2-5.62,4.15-11.25c2.09-5.62,4.21-11.19,6.37-16.77.37-1,.73-1.93,1.1-2.86,1.39-3.58,2.82-7.17,4.25-10.76,2.79-6.9,5.64-13.81,8.57-20.68,2-4.72,4-9.4,6.17-14.05.3-.7.63-1.43,1-2.13,6.68-14.81,13.85-29.42,21.62-43.7.33-.73.73-1.42,1.13-2.12,2-3.69,4-7.34,6.14-11h0c.13-.27.26-.53.4-.76.49-.87,1-1.73,1.49-2.56,1.36-2.32,2.72-4.62,4.12-6.91,2.79-4.65,5.68-9.23,8.63-13.74a1.43,1.43,0,0,1,.3-.44c2.23-3.48,4.52-6.9,6.91-10.32.46-.73,1-1.5,1.52-2.23q6.53-9.41,13.62-18.53t14.71-17.76s0,0,0,0c3.92-4.51,8-8.93,12.19-13.21,0,0,0-.07.07-.1,1.62-1.66,3.25-3.32,4.88-4.85A313.67,313.67,0,0,1,1385.39,439q3-2.43,6.17-4.81,5.88-4.53,12.12-8.73,5.53-3.73,11.36-7.14c3.89-2.33,7.87-4.45,11.92-6.45l.23-.09a135.69,135.69,0,0,1,24.54-9.2c2.73-.73,5.45-1.36,8.24-1.86,1.06-.2,2.12-.4,3.19-.57a89.42,89.42,0,0,1,13.51-1.06h0c1,0,2,0,3,.07,1.49,0,2.95.13,4.42.3a59.6,59.6,0,0,1,6.57.86,2.28,2.28,0,0,1,.66.13,64.93,64.93,0,0,1,7.54,1.76c.8.23,1.56.47,2.33.77,1.33.39,2.62.89,3.92,1.39a1,1,0,0,0,1.12-.2,1.46,1.46,0,0,0,.87.1c2.62-.6,5.28-1.19,7.93-1.76.87-.2,1.76-.36,2.63-.53q5.77-1.25,11.62-2.29l3.82-.7c6.91-1.16,13.85-2.16,20.79-2.89,4-.4,8.1-.7,12.18-.89a179.65,179.65,0,0,1,22.38.16,146.3,146.3,0,0,1,16.84,2.06c1.66.3,3.29.63,5,1a118,118,0,0,1,24.07,8,.28.28,0,0,1,.2.1c2.13.93,4.22,1.95,6.24,3.05a1.33,1.33,0,0,1,1.23,0,78.29,78.29,0,0,1,14.31,8.83,1.18,1.18,0,0,1,.34.37c1.23.83,2.42,1.66,3.62,2.52a1.47,1.47,0,0,1,.59.33,2.33,2.33,0,0,0,.34.37,79,79,0,0,1,12.22,11.56,1.35,1.35,0,0,1,0,1.66c2.36,2.59,4.75,5.14,7.1,7.7a1.17,1.17,0,0,1,.2,1.36C1682.42,446.54,1684,448.87,1685.54,451.26Zm-26.2-27.53c-.43-.33-.86-.66-1.3-1a1.25,1.25,0,0,1-.16,1.46c.83.86,1.66,1.79,2.46,2.72.59.4,1.16.83,1.76,1.23a1.23,1.23,0,0,1,.49-.57C1661.46,426.39,1660.37,425.09,1659.34,423.73Zm-32.24-11-2-.2c.66.36,1.36.8,2,1.19a1.14,1.14,0,0,1,1.1-.23,36.59,36.59,0,0,1,6.11,2.33c.06,0,.1-.14.16-.17C1632.08,414.7,1629.59,413.73,1627.1,412.74ZM1569.91,410l-3.12-.1c2.73.5,5.45,1.07,8.14,1.63a1.2,1.2,0,0,1,.8-.3,1,1,0,0,1,.29,0,1.71,1.71,0,0,1,.1-.53C1574,410.48,1572,410.21,1569.91,410Zm-23.37-.83c-3.69.73-7.34,1.36-11.06,1.83,1.26-.1,2.56-.23,3.85-.3,3.29-.43,6.54-1,9.83-1.43C1548.3,409.19,1547.43,409.15,1546.54,409.15Zm144.11,140c-.06-2-.06-4-.06-6a56.06,56.06,0,0,1-2.79,13.11,1.15,1.15,0,0,1-.73.73,55.21,55.21,0,0,1-3.09,8.5.87.87,0,0,1-.5.5c-.2.63-.4,1.26-.63,1.89-.1.27-.17.54-.27.77-.33,1.06-.69,2.12-1,3.19a1.4,1.4,0,0,1,.44,1.62c-.67,1.37-1.33,2.73-2,4.09a1,1,0,0,1-.53.5c-1,3.15-2.1,6.31-3.16,9.43-.1.83-.26,1.62-.4,2.45a.91.91,0,0,1,.2.6c0,1.2,0,2.39,0,3.59,2.22-5.95,4.45-11.89,6.57-17.87,1-2.92,2.06-5.87,3.06-8.83,0-.13.1-.3.13-.43,1-3.49,2-6.94,3.26-10.36a68.8,68.8,0,0,1,1.56-7.44S1690.65,549.22,1690.65,549.18Zm-35.16,100c-.93,3.82-1.76,7.64-2.56,11.49.37-1,.76-2.06,1.16-3.09.57-2.75,1.1-5.54,1.76-8.3A1.21,1.21,0,0,1,1655.49,649.2Zm-5.78,39.92c-.07,1.46-.07,2.88-.07,4.35.2-1.27.4-2.5.63-3.76A1.24,1.24,0,0,1,1649.71,689.12Z"/><path class="cls-3" d="M1490.88,485.23c-1-3.39-1.92-6.78-3-10.13a.85.85,0,0,0-.27.63c-.06-.23-.13-.46-.2-.7a1.07,1.07,0,0,0-.83-.83c-.16-1-.33-2-.56-3a1.24,1.24,0,0,0-2.43.34c0,.53.1,1.06.14,1.59,0,0-.07.1-.14.13-.26-1.23-.56-2.45-.86-3.68a1.12,1.12,0,0,0-1.56-.8c-.27-.26-.8-.83-1.16-.9l-.4-.83a1.27,1.27,0,0,0-2.29.3c-.5,1.2.06,1.73.8,2.23,1.26,2.42,2.49,4.81,3.75,7.24.06.23.1.49.16.73v.33a1.23,1.23,0,0,0,1.2-1.53,1.63,1.63,0,0,1-.07-.33c.33,1,.63,2,1,3.05a1.28,1.28,0,0,0,2.22.37c.63,2.16,1.3,4.28,2,6.44A1.26,1.26,0,0,0,1490.88,485.23Zm48.85-13.82a2.3,2.3,0,0,0-1.23-.13l.2.4c.9.63,1.79,1.26,2.69,1.93C1540.83,472.88,1540.26,472.14,1539.73,471.41Zm11.46,16.41c-.83-.53-1.7-1-2.49-1.56a1.44,1.44,0,0,1-.27.33l.6.8c.4.33.83.63,1.23.93a1.25,1.25,0,0,1,.53.89l2.72,2.53C1552.75,490.41,1552,489.11,1551.19,487.82Zm4.18,73.28a14.66,14.66,0,0,0-2.09-.13,4.47,4.47,0,0,0,1.66,1.6.3.3,0,0,1,.16,0c.37,0,.77,0,1.13,0a12.13,12.13,0,0,1,.37-1.16C1556.2,561.3,1555.77,561.2,1555.37,561.1Zm8.14-14.74a18,18,0,0,0-3.62-1.1,1.56,1.56,0,0,0-2.33.54c-1.43.53-1.43,1.23,0,2,.9,1.5,2.09,2.09,2.62,3.85a1.27,1.27,0,0,1-1.19,1.6,42.74,42.74,0,0,0-9.4,2.36,25,25,0,0,0,6.24,3,15.18,15.18,0,0,1,1.83.34c.27-.54.57-1.07.86-1.6,2.1-3.58,4.42-6.87,6.21-10.52A11,11,0,0,0,1563.51,546.36Zm12.32-56.25a.77.77,0,0,1-.44-.2s-.06,0-.06,0c-2.49-1.17-5-2.39-7.47-3.56,1.32,1,2.62,2.06,4,3.13a1.07,1.07,0,0,1,.73-.07l3.58.9C1576,490.21,1575.92,490.18,1575.83,490.11Zm14.57,7c-.63-.3-1.26-.63-1.89-.93.6,1.16,1.2,2.36,1.79,3.52a2.73,2.73,0,0,1,.24.26,1.21,1.21,0,0,0,.1.14c.49.06.93.13,1.39.2C1591.53,499.27,1591,498.21,1590.4,497.15ZM1594.62,635c-1.39,2.63-2.69,5.31-3.95,8a1,1,0,0,0-.9-.49c.23-.24.5-.47.73-.7a1.26,1.26,0,0,0,0-1.79c.1-.14.2-.24.3-.37a1.11,1.11,0,0,0-.5-1.66,44.6,44.6,0,0,1-12.45,10.46c-2.79,1.59-.3,5.88,2.52,4.32.33-.2.63-.37,1-.6a18.36,18.36,0,0,0,1.6-1,49.07,49.07,0,0,0,13.78-13.31c.1-.73.2-1.5.26-2.23C1597.08,634.39,1595.18,634,1594.62,635Zm3.42-91a2.16,2.16,0,0,0-.43-.37c-.5,3.89,2.82,8.4,4.51,11.49C1600.73,551.47,1599.34,547.76,1598,544Zm1.13,89.92c.73-1.3,1.39-2.62,2-4a61,61,0,0,0,4.52-18.19Q1602.25,622.84,1599.17,634ZM1606,528.23a1.38,1.38,0,0,1-1.23-.53l-1.09-1.59c.86,3,1.66,6.07,2.45,9.13C1606,532.91,1606,530.55,1606,528.23Zm.6,45.13c-.9-3.36-1.9-6.71-3-10q-3.49-3.89-7.37-7.54c.23,1,.5,2,.83,3,.06.07.13.17.2.24a1.36,1.36,0,0,1,1.19.26,20.6,20.6,0,0,1,6.94,10.4,1.13,1.13,0,0,1-.33,1.16C1605.58,571.7,1606.08,572.53,1606.61,573.36Zm5.31-23.21c.23,1.46.47,2.92.73,4.41.1.17.23.33.33.5.07-1.19.1-2.39.14-3.59C1612.72,551,1612.32,550.58,1611.92,550.15Zm1.46-20c-1.49-3.22-3-6.44-4.58-9.63a78.23,78.23,0,0,0-.23,10.8c0,2.35.2,4.68.3,7a1,1,0,0,1,1.29.87c.4,2.12.7,4.22,1,6.34.66.76,1.36,1.53,2,2.29.1-4,.19-7.93.33-11.92C1613.48,534,1613.45,532.05,1613.38,530.12Zm4.32,11.09c.13,4,.16,8,.2,12.06.46.53.93,1.09,1.36,1.62a4.19,4.19,0,0,0,.13-.69C1618.69,549.91,1618.2,545.56,1617.7,541.21Z"/><path class="cls-3" d="M1703.64,526.07l0,0a166.82,166.82,0,0,0-3.91-37.43,107.6,107.6,0,0,0-6.88-20.52,94.38,94.38,0,0,0-6.44-12,1.56,1.56,0,0,0,1.1-.87c-.27-.6-.6-1.19-.9-1.79s-.67-1.46-1-2.19c-1.53-2.39-3.12-4.72-4.82-7a1.17,1.17,0,0,0-.2-1.36c-2.35-2.56-4.74-5.11-7.1-7.7a1.35,1.35,0,0,0,0-1.66A79,79,0,0,0,1661.17,422a2.33,2.33,0,0,1-.34-.37,1.47,1.47,0,0,0-.59-.33c-1.2-.86-2.39-1.69-3.62-2.52a1.18,1.18,0,0,0-.34-.37,78.29,78.29,0,0,0-14.31-8.83,1.33,1.33,0,0,0-1.23,0,1.31,1.31,0,0,0-.59.86,54.74,54.74,0,0,0-5.65-3.91.28.28,0,0,0-.2-.1,118,118,0,0,0-24.07-8c-.43-.07-.9-.1-1.33-.14a1,1,0,0,0-1.1.73c-2.42-.63-4.88-1.19-7.37-1.66a1.11,1.11,0,0,0-.66,0,1,1,0,0,0-.83-.7c-3.49-.56-7-1-10.5-1.33a179.65,179.65,0,0,0-22.38-.16,1.31,1.31,0,0,0-.23.36c-1.33,0-2.69,0-4,.07a1.21,1.21,0,0,0-1.13.79h-.56a1.29,1.29,0,0,0-.9-.43c-1.79,0-3.55,0-5.34.1-6.94.73-13.88,1.73-20.79,2.89v.1c-1.3.2-2.56.37-3.82.6q-5.83,1.05-11.62,2.29a.81.81,0,0,0-.23.46h-.07c-.7.1-1.36.27-2,.37a.62.62,0,0,0-.3-.3c-2.65.57-5.31,1.16-7.93,1.76a1.46,1.46,0,0,1-.87-.1,1,1,0,0,1-1.12.2c-1.3-.5-2.59-1-3.92-1.39-.43.06-.83.13-1.26.23a.82.82,0,0,0-.4-.13c-.9-.07-1.76-.07-2.66-.14a1.21,1.21,0,0,0,.43-.56l1-.1a1.46,1.46,0,0,0,.36,0,.34.34,0,0,0,.2,0,64.93,64.93,0,0,0-7.54-1.76,3.82,3.82,0,0,0-.59,0s0-.07-.07-.1a59.6,59.6,0,0,0-6.57-.86,27.42,27.42,0,0,0-4.09.33,1.32,1.32,0,0,0-.33-.63c-1,0-2-.07-3-.07h0c-2.42.33-4.85.73-7.24,1.1a1.07,1.07,0,0,0-1.16-.34l-1.2.5c-.59,0-1.16,0-1.76,0h-.1a39.28,39.28,0,0,0-4.94.46,1,1,0,0,0-.3-.13c-2.79.5-5.51,1.13-8.24,1.86-2.29.76-4.58,1.59-6.84,2.49a.93.93,0,0,0-.5.06c-4.94,1.63-9.82,3.56-14.61,5.65l-2.59,1-.23.09c-4,2-8,4.12-11.92,6.45a70.65,70.65,0,0,0-6,4.41.21.21,0,0,1-.13.07,1.27,1.27,0,0,0-.9.13c-1.46.8-2.89,1.63-4.32,2.53q-6.23,4.19-12.12,8.73c-2.42,2-4.71,4.15-6.94,6.38a181.84,181.84,0,0,0-22.35,20,1.25,1.25,0,0,0-.36,1c-.43.37-.86.7-1.26,1.06a1.23,1.23,0,0,0-.83-.66c-1.63,1.53-3.26,3.19-4.88,4.85,0,0-.07.06-.07.1-2.29,2.65-4.55,5.31-6.81,8-.2.17-.36.37-.53.53-1.66,1.53-3.25,3.09-4.85,4.68,0,0,0,0,0,0q-7.62,8.67-14.71,17.76t-13.62,18.53c-.26.47-.46.93-.69,1.36-.2.24-.37.5-.57.73-.1,0-.16.1-.26.14-2.39,3.42-4.68,6.84-6.91,10.32-.07.14-.13.24-.2.37s-.07,0-.1.07c-2.95,4.51-5.84,9.09-8.63,13.74q-1.65,3.29-3.26,6.61a1.29,1.29,0,0,0-.86.3c-.5.83-1,1.69-1.49,2.56-.14.23-.27.49-.4.76h0c-2.09,3.62-4.15,7.27-6.14,11-.2.43-.36.9-.56,1.36,0,0,0,0-.07,0s-.1.17-.17.27h0s0,0,0,.07a3,3,0,0,0-.27.39c-7.77,14.28-14.94,28.89-21.62,43.7l-.63,2.49a3.6,3.6,0,0,0-.33-.36c-2.12,4.65-4.15,9.33-6.17,14.05-2.93,6.87-5.78,13.78-8.57,20.68-1.43,3.59-2.86,7.18-4.25,10.76-.23,1-.47,2-.7,3a2.23,2.23,0,0,0-.4-.16c-2.16,5.58-4.28,11.15-6.37,16.77-1.07,3.38-2.1,6.84-3,10.26a1.16,1.16,0,0,0-.93.59c-.06.14-.13.27-.19.4q-3.09,8.37-6.08,16.81a.12.12,0,0,0,0,.1.14.14,0,0,0,0,.1c-.53,1.95-1.06,3.95-1.63,5.94a1,1,0,0,0-.46.5c0,.1-.07.2-.1.3h0a.56.56,0,0,1-.06.2,52.83,52.83,0,0,0-3.12,9.76,1.05,1.05,0,0,0-.5.43c-.27.43-.5.86-.73,1.29-1.07,3-2.13,6-3.19,9l-.1.6a.21.21,0,0,0-.13.07c-1.07,3-2.13,6.07-3.19,9.1l.1.23c-.8,2.49-1.63,5-2.52,7.44-.14.33-.3.66-.47,1a1.78,1.78,0,0,0-.33.43c0,.1-.07.17-.1.27a.15.15,0,0,1,0,.07c-.07.16-.14.36-.2.53q-5.58,15.88-11.33,31.71c-.1.4-.16.83-.23,1.23-.3.8-.63,1.59-.93,2.39a1.39,1.39,0,0,0-.17,0c-3,8.26-6.11,16.53-9.29,24.74-.34,1.09-.67,2.19-1,3.32-.26.69-.49,1.39-.76,2.09-.53,1.29-1.1,2.59-1.63,3.85a.84.84,0,0,0-.33.2c-.6,1.56-1.19,3.09-1.83,4.65-1.19,3-2.39,6-3.65,9a1.28,1.28,0,0,0,.13.69c-1,2.13-2,4.25-3,6.35q-5,12-10.39,23.91c-.4,1.09-.73,2.19-1.06,3.32l-1.7,2.65c-2.92,6.38-6,12.69-9.1,19-.26.53-.53,1.1-.83,1.63a1,1,0,0,0,.83-.17c-.19.34-.39.67-.59,1a1.45,1.45,0,0,0-.5-.33c-1.46,2.82-3.09,5.68-4.48,8.67a1.1,1.1,0,0,0,.53.26c-.07.53-.17,1.06-.24,1.63l-.33.66a1.29,1.29,0,0,0,.1,1.3c-.23,2-.43,4.05-.56,6.07a1.18,1.18,0,0,0,1.92,1l2.39,5.74c-.19.47-.36,1-.56,1.43a1,1,0,0,0,.47,1.29c-1.53,2.1-3,4.22-4.52,6.38,1.26,3.92,2.79,7.77,3.92,11.39,1.59,5.21,3.22,10.39,4.85,15.57l2.29-2.59a.92.92,0,0,0,1.09-.33c.87-1,1.73-2,2.59-3-1,1.4-2,2.86-3,4.32-.83,1-1.7,2.09-2.56,3.12.47,1.5.93,3,1.43,4.52q20.07-23.31,40.08-46.59a1.31,1.31,0,0,0,.33-.86s0,0,0,0a.65.65,0,0,0,.14-.26L1227.46,879c3.68-3.88,7.47-7.7,11.25-11.55a1,1,0,0,0,.83-.4,2.12,2.12,0,0,0,.17-.27s0,0,.07-.06c.43-.54.83-1.1,1.23-1.66,1.26-1.27,2.52-2.59,3.78-3.89,2.19-.73,3.92-2.49,5.65-4.28,4-4,8-8.07,12-12.12q3.84-3.88,7.64-7.77c.1.3.16.63.23.93a1.26,1.26,0,0,0,2.46-.34c0-.36,0-.73,0-1.09a1.25,1.25,0,0,0,1.9-1.3c-.1-.83-.24-1.62-.37-2.42l1.89-2,.9,2c.63,1.36,2.46.3,2.26-1s-.43-2.36-.63-3.56h0a1.23,1.23,0,0,0,1.69-1.42c0-.1,0-.17-.06-.24,1.79-1.86,3.62-3.68,5.41-5.51a1.14,1.14,0,0,0,.27-1.23.74.74,0,0,0,.16-.2l.1.3c.37,1.3,2.59,1.1,2.43-.33-.07-.83-.17-1.63-.27-2.42.23-.27.5-.54.73-.8.23,1,.47,2,.7,2.92a1.26,1.26,0,0,0,2.46-.33c.23-3.16.36-6.28.49-9.43a1.5,1.5,0,0,0,.83-.2c.47,2.75,1,5.51,1.6,8.23a1.23,1.23,0,0,0,2.42-.33c0-1.46,0-2.95,0-4.41,0-.07,0-.14,0-.2s0-.24,0-.34v-1.56c.16-1.59.23-3.22.26-4.81a1,1,0,0,0,1.13-.33,18.46,18.46,0,0,0,1.4-1.86,6,6,0,0,0,4-4.82,1,1,0,0,0,.8-.6l.1-.29c0-.07,0-.1.06-.17.14-.37.27-.73.37-1.1a4.48,4.48,0,0,0,.26-.43.12.12,0,0,1,0-.1c0-.06.13-.13.16-.2a11.54,11.54,0,0,0,1.46-9.86,1,1,0,0,0-.46-.6,1,1,0,0,0,.5-1c-.17-1.3-.3-2.59-.47-3.89a1.13,1.13,0,0,0,.53-1.29c-.16-.73-.3-1.46-.46-2.2a1.17,1.17,0,0,0,.36-1.22,77.74,77.74,0,0,0-3.48-10.53,1.23,1.23,0,0,0-.6-.66l-.73-2a1,1,0,0,0-.43-.56,66.71,66.71,0,0,0-2.73-8.31c-.56-1.56-1.16-3.12-1.82-4.64,0,0,0,0,0-.07l-.1-.3a.94.94,0,0,0-.92-.6l-.57-1.66a66.85,66.85,0,0,0-2.49-8.5,31.1,31.1,0,0,0-3.62-10.09,1.3,1.3,0,0,0-.43-.44,34.85,34.85,0,0,0-4.55-16.37c-.66-2.52-1.33-5-2-7.57a23.06,23.06,0,0,0-1.56-6.31c-.07-.33-.2-.66-.27-1v0c0-1.06.07-2.12,0-3.18a4.6,4.6,0,0,0-1.36-3.06c0-.3-.1-.56-.13-.83.06-2.16.13-4.35.16-6.51a1,1,0,0,0,.3-.46c.17-.53.37-1,.57-1.53a3.55,3.55,0,0,0,.26-.8c.13-.3.23-.63.37-1a1.21,1.21,0,0,0,1.06-1.53v0c.43,0,.86,0,1.26,0a1.27,1.27,0,0,0,1-.7h.07a3.21,3.21,0,0,0,1.46.1l1,.4a1.68,1.68,0,0,0,.54,0,12.3,12.3,0,0,1,.43,1.59c.36,1.6,2.65.87,2.42-.66-.06-.43-.56-2.32-.66-3.45a1.38,1.38,0,0,0,.53-.43,1.91,1.91,0,0,0-.47-2.23c-.1-.33-.23-.63-.33-1v-7.81l1.1-4.25a8,8,0,0,0,2.19-3.45,1,1,0,0,0-.07-.56c.07,0,.1.1.17.13,1.16.7,2.39,0,3.68.6a9.75,9.75,0,0,1,3.46,2.75,11.58,11.58,0,0,0,2.46,4.05c.1.17.16.34.23.47a1.06,1.06,0,0,0,.89.6c.67,1.46,1.4,2.92,2.13,4.35a2.06,2.06,0,0,0,.46.89s0,.07,0,.14l0,0a2.62,2.62,0,0,0,.43.47,1.08,1.08,0,0,0,1.66-.47,1.33,1.33,0,0,0,.57-.33,1.39,1.39,0,0,0,.4.56,3,3,0,0,0,2.09.7c.1,0,.16-.06.26-.06a10,10,0,0,1,3,1.32,1.18,1.18,0,0,0,1.49-.23,10.81,10.81,0,0,1,1.8,1.66,1.21,1.21,0,0,0,.3.5,1,1,0,0,0,1.06.3,1.46,1.46,0,0,0,.06.5,39.7,39.7,0,0,0,4.19,7.4c.53.73,2.09.87,2.29-.3a83,83,0,0,1,1.93-9.46.89.89,0,0,0,.59-.5,51.13,51.13,0,0,0,2.43-6c.4,1,2.12,1.16,2.36-.07,1-4.78,1.66-9.56,2.19-14.38a15,15,0,0,0,1-2c.63-.89,1.26-1.82,1.83-2.75a42.48,42.48,0,0,0,6.08-11,23.32,23.32,0,0,0,1.42-3.29,14.37,14.37,0,0,0,1.2-7.93,1.23,1.23,0,0,0-2.09-.8,8.91,8.91,0,0,0-1.23-3.46.73.73,0,0,0-.17-.19,18.49,18.49,0,0,0-1-2.86s0,0,0-.07a1.35,1.35,0,0,0-.14-.3.88.88,0,0,0-.53-.49c-.16-.77-.3-1.56-.5-2.33a1.11,1.11,0,0,0-.56-.7c.1-1.52.2-3.08.3-4.61a1.3,1.3,0,0,0,2.19,0c.33-.63.7-1.29,1-1.92a1.29,1.29,0,0,0,.6-.5.31.31,0,0,1,.13-.17,1,1,0,0,0,1.46-.2,160.6,160.6,0,0,0,9.9-13.21,11.62,11.62,0,0,0,1.89-1.17,1.15,1.15,0,0,0,2-.06c.6-1.16,1.17-2.36,1.76-3.52a1.19,1.19,0,0,0,1.57-.47c1-1.79,1.82-3.65,2.75-5.44a1.18,1.18,0,0,0,.6-.53c.83-1.9,1.66-3.76,2.52-5.62,1.1-2.32,2.1-4.64,3.12-7l2.23-5c0-.1.1-.2.13-.3a1,1,0,0,0-.5-1.29c.2-.5.44-1,.64-1.53,0,0,0-.1,0-.17a1,1,0,0,0,1.23-.53l11.49-23.51a1.25,1.25,0,0,0-.2-1.43c.53-1,1-1.92,1.49-2.92,1.43-2.66,2.82-5.31,4.25-8a1,1,0,0,0,1.46-.5c1.3-2.89,2.69-5.71,4.05-8.53a9,9,0,0,1,.8-.43,1.34,1.34,0,0,0,.93-.5.15.15,0,0,0,.1-.07,1,1,0,0,0,1.43.7,1.3,1.3,0,0,0,.3-.13v0a.74.74,0,0,1,.16-.1c.6-.26,1.2-.53,1.76-.83a.91.91,0,0,0,.43-.07c.1,0,.2-.09.3-.13h0c1.16-.46,2.29-1,3.42-1.49a1.08,1.08,0,0,0,1.39.13c1.36-.83,2.79-1.56,4.19-2.32a1.1,1.1,0,0,0,1.62.43c2.53-1.53,5-3.06,7.57-4.55a1.36,1.36,0,0,0,.47-.53c.26-.17.56-.33.86-.5.47-.17.9-.4,1.36-.53a1.15,1.15,0,0,0,.77-.73c1.13-.63,2.19-1.33,3.28-2a1,1,0,0,0,1.27,0c2.09-1.4,4.28-2.63,6.44-3.92,2.12-1.06,4.28-2.16,6.41-3.32a1,1,0,0,0,.53-.53c2.16-1.16,4.28-2.33,6.47-3.36a1,1,0,0,0,.63-.79,45,45,0,0,0,8.57-5.58,1.12,1.12,0,0,0,.4-.77c1.3-.86,2.59-1.76,3.92-2.62l.46-.26a1.32,1.32,0,0,0,.6-.14c4.45-2.22,8.93-4.41,13.38-6.61.47,1.37.93,2.69,1.47,4a1.32,1.32,0,0,0,1.22.9v-.33c-.06-.24-.1-.5-.16-.73-1.26-2.43-2.49-4.82-3.75-7.24-.74-.5-1.3-1-.8-2.23a1.27,1.27,0,0,1,2.29-.3l.4.83c.36.07.89.64,1.16.9a1.12,1.12,0,0,1,1.56.8c.3,1.23.6,2.45.86,3.68.07,0,.1-.1.14-.13,0-.53-.1-1.06-.14-1.59a1.24,1.24,0,0,1,2.43-.34c.23,1,.4,2,.56,3a1.07,1.07,0,0,1,.83.83c.07.24.14.47.2.7a.85.85,0,0,1,.27-.63c-.33-1.23-.73-2.49-1.1-3.72-.46-1.73-.83-3.52-1.23-5.28,1.1,2.86,2.23,5.71,3.29,8.57a1.15,1.15,0,0,0-1,.43c1,3.35,2,6.74,3,10.13a1.26,1.26,0,0,1-2.42.66c-.73-2.16-1.4-4.28-2-6.44a1.28,1.28,0,0,1-2.22-.37c-.37-1-.67-2-1-3.05a1.63,1.63,0,0,0,.07.33,1.23,1.23,0,0,1-1.2,1.53,85.37,85.37,0,0,0,6.11,25.47,1,1,0,0,0,.3.46A60.6,60.6,0,0,0,1496,528.6,147.47,147.47,0,0,0,1506.39,550a54,54,0,0,0,5.88,10.69,14.45,14.45,0,0,0,3.52,6.11,36.23,36.23,0,0,0,3,3.29,2.66,2.66,0,0,0,.6,1.42c4.51,5.32,11,8,17.26,10.63h.14a32.7,32.7,0,0,0,9.43,2.49.94.94,0,0,0,1-.53,12.06,12.06,0,0,0,2.82-1,1,1,0,0,0,.6-1.17l1.06-.19a1.55,1.55,0,0,0,.23.19,1.27,1.27,0,0,0,2-.23l.5-.76a30.91,30.91,0,0,0,7.37-3.55,2.63,2.63,0,0,0-.63-4.62c2.59-.27,5.25-1.13,7.61-1.56,1.82-.33,3.65-.63,5.47-.83a.83.83,0,0,1,.27.07,2.69,2.69,0,0,0,1.73-.27,32.67,32.67,0,0,1,4.08,0,29,29,0,0,1,18.3,15.37c2.36,4.92,2.19,10.49,3,15.74-.57,8.93-1.17,18-4.75,26.2a42.82,42.82,0,0,1-6.61,10.56,1.11,1.11,0,0,1,.5,1.66c-.1.13-.2.23-.3.37a1.26,1.26,0,0,1,0,1.79c-.23.23-.5.46-.73.7a1,1,0,0,1,.9.49c1.26-2.69,2.56-5.37,3.95-8,.56-1.06,2.46-.63,2.32.63-.06.73-.16,1.5-.26,2.23a46.2,46.2,0,0,0,2.49-3.92q3.09-11.12,6.51-22.18c0-.4.1-.8.13-1.2a.53.53,0,0,1,.2.07,11.55,11.55,0,0,0-.33,1.13,61,61,0,0,1-4.52,18.19c-.6,1.37-1.26,2.69-2,4-.27.86-.5,1.69-.73,2.56-.2.46-.37.93-.53,1.39-.6,1.56-1.23,3.12-1.86,4.68.23-1.56.46-3.12.63-4.71a49.07,49.07,0,0,1-13.78,13.31l-.3.7a1.09,1.09,0,0,0-.23.33,6.29,6.29,0,0,0-1.07,0c-.33.23-.63.4-1,.6-2.82,1.56-5.31-2.73-2.52-4.32A44.6,44.6,0,0,0,1590.27,638a1.2,1.2,0,0,0-1.46.13,29.2,29.2,0,0,1-10.13,6.41c-.07,0-.07-.06-.13-.06a16.14,16.14,0,0,0-7.81.36,9.31,9.31,0,0,0-5.71,1.23,1,1,0,0,0-.56,1.13,2.78,2.78,0,0,0-4.19.16c-.49.7-1,1.43-1.39,2.16l-.07.07a2.27,2.27,0,0,1-.26.4,8.21,8.21,0,0,0-1.6,1.76,1,1,0,0,0-.06,1.06c-.1.17-.23.3-.33.47a2,2,0,0,0-1.3,1.09,9.34,9.34,0,0,1-1.73,2.52,5.89,5.89,0,0,1-1,.9,2.53,2.53,0,0,0-4-.66,4.08,4.08,0,0,0-.5,4.45,17.74,17.74,0,0,1,.13,1.79,2.12,2.12,0,0,0-1.89,1.73c-.53,2.29-1,4.58-1.53,6.84a42.4,42.4,0,0,0-1.56,7.14.21.21,0,0,0,0,.13c0,.23-.07.43-.1.66a1.76,1.76,0,0,0,.26,1.2c-.23.93-.4,1.86-.56,2.79a8.36,8.36,0,0,1-.37,1,2.54,2.54,0,0,0-2.45,1.72c-1.23,3.39-2.39,6.75-3.66,10.1-.2.53-.4,1-.63,1.53a58.93,58.93,0,0,1-5.18,6.64c-1.79,2,.53,5.48,3,3.92.2-.14.34-.3.5-.4h0v0a15.83,15.83,0,0,0,3.68-3.58,2.37,2.37,0,0,0,.67.53,44.34,44.34,0,0,0-3.69,12.35,2.77,2.77,0,0,0,.3,1.76,58.51,58.51,0,0,0-1.86,6.81,2.26,2.26,0,0,0,.13,1.33c-.16.76-.4,1.53-.53,2.29a2.76,2.76,0,0,0,1,2.49c-.3.9-.66,1.76-1,2.66-1,2.65,3.22,4.38,4.55,1.92a36.4,36.4,0,0,0,3.22-8.4c1.06,1.06,2.89,1.3,3.78-.43.1-.23.24-.5.33-.73.3,2.29,4.09,2.39,4.85.07,0,0,0,0,0-.07,1.13,1.46,3.72,1.63,4.31-.7.1-.46.24-.93.34-1.39.66,2.16,4.05,2.79,4.71.1.56-2.39,1.13-4.75,1.69-7.11a1.4,1.4,0,0,0,.2.17c-.1,1.13-.16,2.25-.23,3.42-.2,2.75,4.32,3.38,4.88.66.23-1,.5-2.06.77-3a4.42,4.42,0,0,0,5.67-1.5,2.74,2.74,0,0,0,3.76-.16,1,1,0,0,0,.83-.87c.1-.7.2-1.36.3-2,.26-.14.53-.27.79-.44,0,.07,0,.14,0,.2a2.46,2.46,0,0,0,4.65,1.56c.36.77.73,1.53,1.09,2.3a2.19,2.19,0,0,0,2.13,1.16c.46,1.89.9,3.75,1.36,5.61.66,2.79,4.78,2.09,4.88-.66,0-1.33,0-2.66,0-4a2.53,2.53,0,0,0,4.11-1.83c.4-3.55.7-7.1,1-10.66a7.93,7.93,0,0,0,1-.5c.23,1.56.46,3.09.7,4.62.46,3,4.61,1.89,4.91-.66.17-1.8.3-3.62.47-5.42h.06c.23,2.66.53,5.35.77,8a2.49,2.49,0,0,0,5,0c.13-2.29.23-4.58.33-6.87a2.47,2.47,0,0,0,3.78-.37,3,3,0,0,0,1.53-.4,13,13,0,0,0,.7,1.2,2.5,2.5,0,0,0,4.28,0,5.85,5.85,0,0,0,.87-2.16,2.47,2.47,0,0,0,3.28-.17,2.61,2.61,0,0,0,.27-.33c.73,2.49,4.48,2.13,4.85-.7.3-2.52.59-5,.93-7.53,0,2.92.1,5.84.13,8.76.07,3.22,4.85,3.22,5,0,.07-1.69.17-3.42.27-5.15v1.13a1.12,1.12,0,0,0,1.36,1.17c0,.46,0,.93-.07,1.36a1.25,1.25,0,1,0,2.49,0,2.11,2.11,0,0,1,0-.5,1.2,1.2,0,0,0,1.76-1.06c0-.87,0-1.73,0-2.56a3.07,3.07,0,0,0,.33-1.1c0-.33.07-.69.13-1,.27.27.53.5.8.74a1.26,1.26,0,0,0,1.86-.2h.17c.1,1.29.19,2.55.23,3.85a2.51,2.51,0,0,0,.66,1.59,2.54,2.54,0,0,0,2.26.77c.6-3.72,1.23-7.48,1.89-11.19,0-1.47,0-2.89.07-4.35a1.16,1.16,0,0,0,1.49.63c-.13.56-.3,1.16-.43,1.72a1.21,1.21,0,0,0,1,1.53c-.53,2.66-1,5.31-1.46,8-.16,1.26,1.66,2.36,2.3,1l.09-.2a1.45,1.45,0,0,0,.67-.77c.33-.83.63-1.66,1-2.52a1.17,1.17,0,0,0,1.5.33q-5.43,12.3-11.19,24.41c-.5,2.95-1,5.91-1.5,8.83,19.06-38.88,35.67-79.06,46.92-120.94,7-26.13,13-54.06,13.55-81.72A2.62,2.62,0,0,0,1703.64,526.07Zm-533.46,370c-1.23,1.39-2.36,2.85-3.56,4.25.4-1.23.83-2.46,1.26-3.65a15.65,15.65,0,0,0,2.66-3.26C1170.41,894.3,1170.28,895.16,1170.18,896.06ZM1205.71,800c1.19-2.62,2.35-5.25,3.55-7.84-1.89,5.48-3.75,11-5.65,16.44C1204.31,805.74,1205,802.85,1205.71,800Zm-4.39,51.31c.44-.77.87-1.57,1.33-2.33l-1.63,7.11a15.75,15.75,0,0,1-.23-2.89Zm-9-17.27c-.1-.3-.16-.6-.23-.9s-.06-.36-.1-.56c.1-.4.14-.77.2-1.13,0-.1.1-.14.13-.23.47-1.43.93-2.89,1.4-4.35,0,1,.07,1.92.17,2.88C1193.32,831.17,1192.82,832.6,1192.32,834Zm1.7-31c-.07.43-.07.86-.1,1.26s-.27.67-.4,1a1.53,1.53,0,0,0-1.1-.66c.14-1.06.34-2.16.5-3.22a1,1,0,0,0,1.66-.37c.33-.76.7-1.49,1-2.25,0,.53,0,1.06-.06,1.59-.2.53-.44,1.06-.67,1.59A1.36,1.36,0,0,0,1194,803Zm9.26,83.85a.79.79,0,0,0-.26.16c-.67.73-1.3,1.5-2,2.23a1.12,1.12,0,0,0-.5.36l-4.45,5.28c-.2.23-.4.47-.6.67l.7-1.5c1.66-2.09,3.29-4.22,5-6.31.89-.76,1.79-1.49,2.69-2.26C1203.68,885.93,1203.48,886.36,1203.28,886.83Zm3.89-10.23c-.43,1-.87,2-1.26,2.92-.17.2-.3.4-.47.57,0,0,0,0,0,0v0c0,.07-.13.17-.17.23a1,1,0,0,0-.2.8c-.63.53-1.29,1.1-1.92,1.66l4.38-7.14C1207.4,876,1207.27,876.3,1207.17,876.6Zm-3.92-56.88c-.13,0-.27,0-.4,0,.23-1,.43-2.09.67-3.12l9-26.13Q1207.65,805,1203.25,819.72Zm10.36,7.1c0-3.22.13-6.44.37-9.63,0,2.33.13,4.62.23,6.94Zm12.85-28.16c-.23,1.13-.46,2.29-.7,3.42-.76,3-1.49,6-2.15,9-.07-.33-.14-.63-.2-1s-.1-.8-.14-1.23C1224.34,805.47,1225.4,802.08,1226.46,798.66Zm-1.13,55.13c-.76.79-1.49,1.62-2.26,2.42.77-1.43,1.56-2.82,2.3-4.28,1.06-1.43,2.19-2.79,3.28-4.19C1227.59,849.77,1226.46,851.76,1225.33,853.79Zm1.23-85.38a1.14,1.14,0,0,0-.23.17c-.07-.3-.1-.57-.17-.87.4-1.72.8-3.42,1.16-5.14a1.08,1.08,0,0,0,.7-.8c.3-1.19.57-2.39.86-3.55a1.24,1.24,0,0,0,.87.36C1228.69,761.87,1227.62,765.16,1226.56,768.41Zm14.51,39.45c-.4,1.13-.73,2.26-1.09,3.32,0-.1,0-.16,0-.23.23-1.2.53-2.39.77-3.59a1.18,1.18,0,0,0-1-1.49c.06-.53.16-1.06.26-1.56.4-.63.77-1.3,1.16-1.93C1241.1,804.21,1241.07,806,1241.07,807.86Zm2.82-126.32c.14-.66.3-1.32.44-2l.29.1c-.66,3.86-1.29,7.74-1.92,11.59-.2,1.13-.37,2.26-.57,3.39C1242.73,690.28,1243.33,685.93,1243.89,681.54Zm1.23,54.46c-.76,2.23-1.56,4.45-2.32,6.64-.07,0-.13,0-.2,0,.33-1.2.63-2.39,1-3.56.57-2.15,1.16-4.28,1.73-6.44C1245.26,733.81,1245.19,734.91,1245.12,736Zm8.67,84.58-4,6.84c-.3.3-.6.63-.9.93.9-1.69,1.73-3.42,2.59-5.15.6-1,1.16-2.09,1.73-3.12a1.41,1.41,0,0,0,.73.07Zm3.69-56.85c-.07-.83-.1-1.63-.17-2.42-.07-.6-.13-1.23-.17-1.83.3-1.43.6-2.86.87-4.32,0,2.83.1,5.65.16,8.47A1.05,1.05,0,0,0,1257.48,763.73Zm12-51c-.06,1.26-.16,2.49-.33,3.72-.33-4.15-.4-8.34-.36-12.52.26.5.53,1,.73,1.36l.1.2C1269.73,708.54,1269.5,711.8,1269.46,712.76Zm27.73,60.57,1.23,8a1.27,1.27,0,0,0-.7-.3c-.23-2.56-.53-5.12-.86-7.67Zm-.33-222.42c-.8,1.2-1.63,2.39-2.46,3.59l.57-1.13c.53-1,1.06-2,1.56-3,.3-.57.59-1.17.89-1.76a1.58,1.58,0,0,0,.4-.44c.23-.46.5-.93.77-1.39a1,1,0,0,0,.46,0Q1298,548.83,1296.86,550.91Zm10.19-3.75c3-4.32,6-8.6,9-12.89a6.19,6.19,0,0,0,.86,0C1313.53,538.52,1310.24,542.81,1307.05,547.16ZM1320.6,528a1.18,1.18,0,0,0,1-.56c.3-.5.6-1,.9-1.46v.23c-.6,1.1-1.2,2.16-1.76,3.26-.5.59-1,1.22-1.5,1.82a4.18,4.18,0,0,1-1.46.53C1318.74,530.49,1319.67,529.23,1320.6,528Zm-2.09,19.83a2,2,0,0,0-.33-.43c2.45-3.42,4.94-6.88,7.44-10.33.46-.53,1-1.06,1.46-1.56C1324.19,539.55,1321.33,543.67,1318.51,547.79Zm23.11,58.08a18.21,18.21,0,0,0,.3-3.56,1,1,0,0,0,.86-.53c.73-1.39,1.46-2.79,2.23-4.15C1343.85,600.35,1342.72,603.11,1341.62,605.87Zm7.87-31.81c-.5.49-1,1-1.43,1.46,2.46-4.12,5-8.17,7.84-12.09C1353.77,567,1351.65,570.54,1349.49,574.06Zm9.23-49.75c-.46.43-.89.87-1.36,1.3,1.16-2.73,2.36-5.45,3.45-8.24v-.1l.47-1.06C1360.45,518.93,1359.59,521.62,1358.72,524.31Zm-2.46-47.18c.14-.27.24-.57.37-.83a6.21,6.21,0,0,1,.56-.67c3-3.05,6.11-6,9.27-8.86C1363,470.15,1359.62,473.64,1356.26,477.13Zm7.24,102.11-.49,1a1.47,1.47,0,0,0-.7-.3c1.16-2.12,2.29-4.25,3.45-6.37C1365,575.45,1364.27,577.34,1363.5,579.24Zm1.93-60.61c-.73,1.1-1.43,2.2-2.16,3.29a.63.63,0,0,1-.1-.17,1.22,1.22,0,0,0,.43-.49c1.36-3.46,2.79-6.91,4.25-10.33C1367,513.45,1366.19,516,1365.43,518.63Zm23.61-37a1.29,1.29,0,0,0-.53.1l2-4.15c.14-.1.27-.2.44-.3a1.09,1.09,0,0,0,.13,1.06C1390.4,479.45,1389.7,480.55,1389,481.64Zm-.83-33.77c-.93.7-1.83,1.4-2.72,2.13a1,1,0,0,0-1.56-.37c-3.42,2.33-6.71,4.85-9.93,7.44,1.86-1.76,3.72-3.55,5.61-5.31a1.1,1.1,0,0,0,.26-.14c1.4-1.26,2.79-2.49,4.22-3.72a1.23,1.23,0,0,0,1.83.83c3.35-2.29,6.64-4.68,9.89-7.1C1393.29,443.75,1390.77,445.81,1388.21,447.87ZM1402,491.54c-.27.26-.57.53-.87.83a.85.85,0,0,0-.1-.43c.47-.87,1-1.7,1.46-2.53.74-.63,1.43-1.29,2.13-1.89C1403.72,488.85,1402.82,490.18,1402,491.54Zm15.37-33c2.72-2,5.48-3.88,8.2-5.84,1.07-.7,2.13-1.43,3.16-2.16l2.72-1.29c-1.59,1.16-3.15,2.29-4.75,3.42-4.25,2.88-8.47,5.77-12.68,8.63C1415,460.36,1416.17,459.46,1417.33,458.56Zm-7.8,12.36-.1.1a1,1,0,0,0-.33.46c-.73,1-1.5,2-2.23,3,1.13-2.26,2.23-4.48,3.32-6.74.8-.57,1.56-1.13,2.36-1.73.36-.16.73-.36,1.1-.53C1412.28,467.3,1410.92,469.09,1409.53,470.92Zm4,.16c1.83-1.29,3.65-2.62,5.48-3.92l-1.4,1.56c-1.06.83-2.12,1.7-3.22,2.53A1.12,1.12,0,0,0,1413.58,471.08Zm1,8.37c.47-.8,1-1.63,1.43-2.42.8-.77,1.6-1.5,2.36-2.3s1.63-1.36,2.42-2c1.93-1.33,3.89-2.62,5.82-3.95C1422.51,472.24,1418.53,475.83,1414.57,479.45Zm19,6.44c-3,1.7-6,3.36-8.93,5.08a1,1,0,0,0,0-.6c3.22-1.85,6.51-3.65,9.83-5.31C1434.2,485.33,1433.9,485.63,1433.57,485.89Zm-7.27-66.05-1.13.6,13.58-7.6a1.62,1.62,0,0,0,.46.33Zm21.22-11.75a1.19,1.19,0,0,0-.5.6c-1.1.26-2.19.56-3.29.86a1.3,1.3,0,0,0-.3-1c.43-.23.83-.53,1.26-.8l1.07-.4a1.27,1.27,0,0,0,.93.1c1.36-.36,2.69-.86,4-1.33C1449.64,406.79,1448.55,407.43,1447.52,408.09Zm13.34,6.94c-1.52.33-3,.66-4.54,1.06l-.07-.06c.9-.5,1.76-1,2.62-1.5a13.43,13.43,0,0,0,1.6-.3c1-.26,2-.56,3-.86C1462.62,413.9,1461.76,414.47,1460.86,415Zm5.42,10.46a1.16,1.16,0,0,0,.13-1.93,2.07,2.07,0,0,1,.4-.13,1.05,1.05,0,0,0,1.46,1c3.55-1.39,7.11-2.62,10.73-3.79C1474.78,422.34,1470.56,424,1466.28,425.49Zm39.21,41.28c-1.66-2.1-3.42-4.12-5.14-6.15.3.07.59.17.89.23a.9.9,0,0,1,.27.07c1.33,1.4,2.69,2.79,4,4.18.66.74,1.3,1.5,2,2.26Zm3.56-6.71c-.24,0-.43-.1-.67-.14-1.29-1.39-2.55-2.78-3.85-4.08-.6-.6-1.16-1.2-1.76-1.79a8.38,8.38,0,0,0,.83.13c1.89,1.73,3.75,3.49,5.55,5.31A.83.83,0,0,0,1509.05,460.06ZM1619.29,534c0-.13,0-.27,0-.4a1.52,1.52,0,0,0,.46.3c.1.2.2.4.3.63.4,3,.8,6,1.2,8.93a2.87,2.87,0,0,0-.07.5C1620.49,540.65,1619.89,537.33,1619.29,534Zm.1,20.19a4.19,4.19,0,0,1-.13.69c-.43-.53-.9-1.09-1.36-1.62,0-4-.07-8-.2-12.06C1618.2,545.56,1618.69,549.91,1619.39,554.2Zm1.3-53.1c-.77-1.06-1.56-2.12-2.36-3.15a2.47,2.47,0,0,1,.07-1.5,1,1,0,0,1,.1-.23c.46.53,1,1,1.46,1.56.39,1.2.83,2.39,1.26,3.59C1621,501.27,1620.85,501.2,1620.69,501.1Zm-14.31-33c1.89,1.59,3.81,3.15,5.67,4.78a1,1,0,0,0-.33.53l-5.41-5.08A.75.75,0,0,0,1606.38,468.13Zm-1.6,59.57a1.38,1.38,0,0,0,1.23.53c0,2.32,0,4.68.13,7-.79-3.06-1.59-6.11-2.45-9.13Zm-12.85-127.55a1,1,0,0,0,.23.14c1.43.53,2.86,1,4.29,1.36l2.42.79c-1.76-.29-3.52-.59-5.31-.83a1.2,1.2,0,0,0-.5.1,1.1,1.1,0,0,0-1-.69c-3.42-.17-6.84-.47-10.26-.73-.07,0-.13,0-.23,0Zm-6.44,26.14c-1.7-.37-3.39-.77-5.08-1.13-.7-.57-1.43-1.1-2.16-1.66ZM1562,425.16c1,.93,2,1.92,3,2.85-.53,0-1,0-1.56.07s-.79-.1-1.19-.13c-.87-.67-1.73-1.3-2.59-1.93C1560.48,425.76,1561.25,425.49,1562,425.16Zm4,51.17a1.3,1.3,0,0,0-.06,1.46c-3.59-3.35-7.28-6.58-11-9.86a10.61,10.61,0,0,0-.37-1Q1560.45,471.54,1566.06,476.33Zm-8.47,53.39c-.56-1-1.19-2-1.79-3,.3.3.6.56.9.86a1.46,1.46,0,0,0,.43.27l3.39,3.39a2.68,2.68,0,0,0-1.53.86c-.37-.2-.7-.43-1.1-.63a2.8,2.8,0,0,0-.33-.53A1.22,1.22,0,0,0,1557.59,529.72Zm-7.3-127.24,2.59.5h-.3a1.33,1.33,0,0,0-1.19,1.06h-1a1.12,1.12,0,0,0-.89-.33q-3.39.15-6.78.39C1545.28,403.54,1547.8,403,1550.29,402.48Zm-16.27,1q-6.37,1.29-12.75,2.49a1.27,1.27,0,0,0-.87-.56C1524.92,404.6,1529.47,403.91,1534,403.44Zm-4.29,11.82c-2.62.27-5.24.57-7.87.87a1.29,1.29,0,0,0-.93-1c4-.36,7.94-.79,11.89-1.23C1531.79,414.37,1530.76,414.83,1529.73,415.26Zm2.13,49.55c-1-.17-2-.37-3-.54-1.79-1.36-3.58-2.72-5.34-4.11,1.69.76,3.39,1.59,5.08,2.45C1529.7,463.34,1530.76,464.08,1531.86,464.81Zm-17.1-20.29c.63.1,1.23.16,1.86.26,1.29,1,2.52,2.13,3.78,3.22a5.39,5.39,0,0,0-.66-.06C1518.08,446.77,1516.42,445.65,1514.76,444.52Zm8.9,114.09c-1.16-1.39-2.29-2.82-3.46-4.21-.43-1-.93-1.9-1.36-2.86.8,1.1,1.63,2.19,2.49,3.29l.4.83a1,1,0,0,0,.63.56c.67.83,1.3,1.7,1.93,2.53C1524.06,558.71,1523.86,558.65,1523.66,558.61Zm10.76,3.66c-2-1.8-4-3.66-6-5.52.43.17.83.34,1.23.54.7.59,1.43,1.16,2.16,1.72,1.62,1.53,3.28,3.06,4.94,4.55C1536,563.1,1535.21,562.67,1534.42,562.27ZM1535.48,411c3.72-.47,7.37-1.1,11.06-1.83.43-.1.89-.16,1.33-.26.43.1.83.23,1.29.36-3.29.47-6.54,1-9.83,1.43C1538,410.75,1536.74,410.88,1535.48,411Zm13.75,2.32c-2.43.27-4.85.57-7.18.77-1.39.1-2.79.26-4.18.4l1-.5a1,1,0,0,0,.63-.83c3.09-.17,6.17-.2,9.26-.27C1548.93,413,1549.09,413.17,1549.23,413.3Zm-10.53,58.38-.2-.4c-.53-.93-1-1.86-1.49-2.82.36.33.73.63,1.09.93.53.66,1.07,1.36,1.63,2s1.1,1.47,1.66,2.2C1540.49,472.94,1539.6,472.31,1538.7,471.68Zm4.15-47.12h-.07c-1.29,0-2.59.1-3.88.13-.33-.23-.66-.43-1-.63,1.93,0,3.86-.1,5.81-.2l.74.6Zm.73-7.07c-.13-.07-.23-.17-.36-.24a1.48,1.48,0,0,0-.27-.1c3-.39,6-.79,9.07-1.26.53.47,1,.93,1.52,1.43a.9.9,0,0,0-.26,0C1550.06,417.32,1546.84,417.39,1543.58,417.49Zm4.85,69.1a1.44,1.44,0,0,0,.27-.33c.79.53,1.66,1,2.49,1.56.79,1.29,1.56,2.59,2.32,3.92l-2.72-2.53a1.25,1.25,0,0,0-.53-.89c-.4-.3-.83-.6-1.23-.93Zm1.16,69a42.74,42.74,0,0,1,9.4-2.36,1.27,1.27,0,0,0,1.19-1.6c-.53-1.76-1.72-2.35-2.62-3.85-1.43-.79-1.43-1.49,0-2a1.56,1.56,0,0,1,2.33-.54,18,18,0,0,1,3.62,1.1,11,11,0,0,1,1.22.47c-1.79,3.65-4.11,6.94-6.21,10.52-.29.53-.59,1.06-.86,1.6a15.18,15.18,0,0,0-1.83-.34A25,25,0,0,1,1549.59,555.63Zm7,5.81a12.13,12.13,0,0,0-.37,1.16c-.36,0-.76,0-1.13,0a.3.3,0,0,0-.16,0,4.47,4.47,0,0,1-1.66-1.6,14.66,14.66,0,0,1,2.09.13C1555.77,561.2,1556.2,561.3,1556.6,561.44Zm-4.19,5.11a10.33,10.33,0,0,0-.29-2.66,2.73,2.73,0,0,0,2.32-.46c1.93,1,3.85,1.89,5.81,2.69A15.27,15.27,0,0,1,1552.41,566.55Zm12.69-7.34a24.36,24.36,0,0,1-3.62-2c-.53-.26-1.06-.6-1.59-.93a1.16,1.16,0,0,1-.14-.23,16,16,0,0,1,2.06.66,21.61,21.61,0,0,1,3.09,1.23c.13.14.3.24.43.37A2.49,2.49,0,0,0,1565.1,559.21Zm1.43-104.57c.56.14,1.13.24,1.72.37,2.13,2,4.29,3.89,6.38,5.88C1572,458.76,1569.25,456.7,1566.53,454.64Zm7.07,74.09a2.43,2.43,0,0,0-1,.53q-1.89-2.89-3.88-5.68a2.73,2.73,0,0,0,.63-1.83,2.47,2.47,0,0,0,.83-.63l2.52,4.29,1.86,3.19A1.85,1.85,0,0,0,1573.6,528.73Zm-1.06-39.35a1.07,1.07,0,0,0-.73.07c-1.33-1.07-2.63-2.1-4-3.13,2.49,1.17,5,2.39,7.47,3.56,0,0,0,0,.06,0a.77.77,0,0,0,.44.2c.09.07.19.1.29.17Zm3.48-78.14a1,1,0,0,0-.29,0,1.2,1.2,0,0,0-.8.3c-2.69-.56-5.41-1.13-8.14-1.63-.89-.2-1.76-.36-2.65-.53a.3.3,0,0,0,.16,0c1.86.23,3.72.43,5.61.66,2.06.23,4.12.5,6.21.73A1.71,1.71,0,0,0,1576,411.24Zm8.9,32.28-2.59-2.49c.53,0,1.07.07,1.6.07.93.89,1.86,1.82,2.79,2.72Zm6.15,47.69c-.14,0-.27,0-.4-.07l-.3-.37c-.76-1.36-1.56-2.72-2.36-4C1589.07,488.18,1590.1,489.68,1591.07,491.21Zm-.67,5.94c.57,1.06,1.13,2.12,1.63,3.19-.46-.07-.9-.14-1.39-.2,0,0-.1,0-.14,0s-.13-.23-.2-.36c-.59-1.16-1.19-2.36-1.79-3.52C1589.14,496.52,1589.77,496.85,1590.4,497.15Zm2.66,7.57c.4.13.8.3,1.19.43.57,1.3,1.13,2.53,1.6,3.82l-1.06-1.16C1594.25,506.78,1593.66,505.75,1593.06,504.72Zm14.15,70.83-.6-2.19c-.53-.83-1-1.66-1.53-2.49a1.13,1.13,0,0,0,.33-1.16,20.6,20.6,0,0,0-6.94-10.4,1.36,1.36,0,0,0-1.19-.26c-.07-.07-.14-.17-.2-.24-.33-1-.6-2-.83-3q3.88,3.64,7.37,7.54a2.23,2.23,0,0,0,1.23-2.79c-3-8.6-6-17.23-8.77-25.93,2.49,5.21,4.88,10.46,7.21,15.71q2.94,13.93,5.84,27.89c0,.73.07,1.43.1,2.12-.13-.33-.26-.66-.4-1-.26-.67-.53-1.33-.79-2S1607.47,576.15,1607.21,575.55Zm-9.6-31.88a2.16,2.16,0,0,1,.43.37c1.3,3.72,2.69,7.43,4.08,11.12C1600.43,552.07,1597.11,547.56,1597.61,543.67Zm13.31,74.12a1.14,1.14,0,0,0-.53.73c-.46,2-1,4-1.42,6a2.79,2.79,0,0,0-.87,0c.73-2.92,1.56-5.88,2.33-8.8a1.35,1.35,0,0,0,.06.47l.5,1.29A.68.68,0,0,1,1610.92,617.79Zm2.06-62.73c-.1-.17-.23-.33-.33-.5-.26-1.49-.5-2.95-.73-4.41.4.43.8.86,1.2,1.32C1613.08,552.67,1613.05,553.87,1613,555.06Zm.24-7.24c-.67-.76-1.37-1.53-2-2.29-.33-2.12-.63-4.22-1-6.34a1,1,0,0,0-1.29-.87c-.1-2.35-.27-4.68-.3-7a78.23,78.23,0,0,1,.23-10.8c1.56,3.19,3.09,6.41,4.58,9.63.07,1.93.1,3.85.17,5.78C1613.41,539.89,1613.32,543.84,1613.22,547.82Zm-.54-121.5c-1.72-.7-3.52-1.33-5.24-2a9.09,9.09,0,0,1,.06-.93q6.63,2.53,13.12,5.51Zm3.92,193.29.73-1.86c.37,2,.73,4.06,1.17,6.11C1617.86,622.44,1617.23,621,1616.6,619.61Zm1.36-41.8v-.47c.5-2.85,1-5.71,1.47-8.56.06.09.16.19.23.29-.27,3.56-.47,7.11-.47,10.66C1618.79,579.1,1618.36,578.47,1618,577.81Zm1.86,40c-.2-1.39-.39-2.82-.59-4.25a1,1,0,0,0,.63-.69l.69-3.42a8.07,8.07,0,0,0,.34-.83h0c.13,1,.2,2,.33,3C1620.75,613.7,1620.29,615.8,1619.82,617.85Zm11.63-114.79c-.4-1.73-.77-3.45-1.13-5.18.46.36.89.73,1.36,1.13C1631.58,500.34,1631.48,501.7,1631.45,503.06Zm1.36,156a2.11,2.11,0,0,0-.83,0c.46-2,1-4,1.42-6.05a1.07,1.07,0,0,0,.84.14C1633.74,655.15,1633.31,657.14,1632.81,659.1Zm-1-10c.13-1,.23-2.06.36-3.09.3-2.36.67-4.72,1-7.07.1.33.23.63.33.93-.23,1.46-.43,2.92-.56,4.41C1632.57,645.85,1632.18,647.47,1631.78,649.07Zm2.59-233.24a36.59,36.59,0,0,0-6.11-2.33,1.14,1.14,0,0,0-1.1.23c-.66-.39-1.36-.83-2-1.19-.8-.53-1.56-1-2.39-1.5l4.35,1.7c2.49,1,5,2,7.43,2.92C1634.47,415.69,1634.43,415.79,1634.37,415.83Zm-4.48-4.92a1.33,1.33,0,0,0,.36-.89c1.46.69,2.92,1.39,4.38,2.15a1,1,0,0,0,1.13,0,1,1,0,0,0,.4.87,4.82,4.82,0,0,0,.6.5,2.1,2.1,0,0,0-.27.19C1634.3,412.74,1632.11,411.81,1629.89,410.91Zm11,68.41-4-3.92c-.07-.2-.14-.37-.2-.57,1.29,1.13,2.65,2.2,4,3.26.2.36.43.7.63,1.06A1.11,1.11,0,0,0,1640.94,479.32Zm6-56.95c-1.1-1.1-2.19-2.16-3.29-3.26,1.23.77,2.42,1.6,3.59,2.46.23.23.43.47.66.67a11.4,11.4,0,0,0,.76.93C1648,422.9,1647.45,422.6,1646.89,422.37ZM1668,553.8a1.15,1.15,0,0,0-.07-.7c.1-.36.2-.7.27-1,.06.23.16.43.23.67-.63,3.22-1.16,6.44-1.66,9.69-.33.77-.66,1.53-1,2.29C1666.55,561.1,1667.31,557.45,1668,553.8Zm-17.43,104.8a1.14,1.14,0,0,0,.13.83c-.13,0-.3-.07-.43-.07.13-2.52.36-5.05.63-7.54a1.29,1.29,0,0,1,.06-.36,1.43,1.43,0,0,0,1,.4C1651.57,654.08,1651.1,656.34,1650.61,658.6Zm3.48-1c-.4,1-.79,2.06-1.16,3.09-.1.23-.17.47-.27.7a1.88,1.88,0,0,0-.53-1.26,1.1,1.1,0,0,0,.9-.87c.7-3.38,1.49-6.77,2.22-10.16a.36.36,0,0,0,.24.1,1.21,1.21,0,0,0,.36.1C1655.19,652.06,1654.66,654.85,1654.09,657.6Zm1.66,4.25c.5-1.86,1.07-3.68,1.66-5.54.83-1.93,1.7-3.85,2.59-5.75v1s.07.06.07.13C1658.74,655.11,1657.31,658.5,1655.75,661.85Zm6.21-233c-.53-.63-1.06-1.26-1.62-1.86-.8-.93-1.63-1.86-2.46-2.72a1.25,1.25,0,0,0,.16-1.46c.44.3.87.63,1.3,1,1,1.36,2.12,2.66,3.25,3.88a1.23,1.23,0,0,0-.49.57A1.07,1.07,0,0,0,1662,428.81Zm5.45,242.34c-1.26,3.25-2.62,6.48-4,9.73l-.1-.1c.36-1.29.73-2.56,1-3.85.23-1-1-2.06-1.9-1.36.14-.4.27-.8.37-1.17a1.3,1.3,0,0,0,.63-.69c.3-.73.53-1.46.8-2.23a1.3,1.3,0,0,1-.07.33,1.24,1.24,0,0,0,2.39.67c.9-3.06,1.73-6.14,2.56-9.2a1.36,1.36,0,0,0,1.06.63C1669.3,666.34,1668.37,668.76,1667.41,671.15ZM1679.76,451c.5.67,1,1.33,1.53,2,.1.2.2.44.3.64.69,1.89,1.36,3.85,2,5.84a1.76,1.76,0,0,0-.37-.17c-.83-2-1.72-4-2.69-5.87a1,1,0,0,0-.59-.57,8.77,8.77,0,0,1-.67-.93A1.23,1.23,0,0,0,1679.76,451Zm-.1,167.56a76.49,76.49,0,0,0,1.23-8.3c.5-1,.93-2,1.39-3a.45.45,0,0,0,.2,0c.17.86.3,1.73.5,2.59a.94.94,0,0,0,.27.33A51.46,51.46,0,0,0,1679.66,618.55Zm6.08-51.07c-.53,1.93-1,3.89-1.5,5.84a139.94,139.94,0,0,0-5.61,16c-.5,1.76-1,3.55-1.43,5.31-.36.9-.79,1.76-1.12,2.66a.28.28,0,0,0-.1.13c0-1.06.1-2.13.13-3.19v0c0-1.2,0-2.39,0-3.59a.91.91,0,0,0-.2-.6c.14-.83.3-1.62.4-2.45,1.06-3.12,2.13-6.28,3.16-9.43a1,1,0,0,0,.53-.5c.63-1.36,1.29-2.72,2-4.09a1.4,1.4,0,0,0-.44-1.62c.34-1.07.7-2.13,1-3.19.1-.23.17-.5.27-.77.2-.59.4-1.22.6-1.85l0,0a.87.87,0,0,0,.5-.5,55.21,55.21,0,0,0,3.09-8.5,1.15,1.15,0,0,0,.73-.73,56.06,56.06,0,0,0,2.79-13.11c0,2,0,4,.06,6,0,0,0,0,0,.07a68.8,68.8,0,0,0-1.56,7.44c-1.23,3.42-2.3,6.87-3.26,10.36C1685.84,567.18,1685.77,567.35,1685.74,567.48Zm5.31,5.71c0,1.63-.07,3.26-.13,4.88a1.13,1.13,0,0,0-1.1.87c-.16.66-.26,1.32-.43,2a1.3,1.3,0,0,0-.86-.63c.06-.76.13-1.49.16-2.22A60.61,60.61,0,0,0,1691,571c0,.53.1,1.07.1,1.56Zm.83-68.37a1.08,1.08,0,0,0-.56.17c.2-4.75.36-9.47.56-14.18h.1c.1.69.27,1.39.37,2.09C1692.35,496.88,1692.18,500.83,1691.88,504.82Zm2.36,64.95c-.1-1.89-.3-3.78-.53-5.68V564a.86.86,0,0,1,0-.33.91.91,0,0,0-.29-.56q1.44-3.95,2.49-7.94A116.4,116.4,0,0,1,1694.24,569.77Zm6-42.7c-.13-2.16-.3-4.29-.63-6.44a.83.83,0,0,0-.46-.67c.43-3.58.73-7.17.93-10.79a1.24,1.24,0,0,0-2.06-.93,1,1,0,0,0-.4.6c-.33,1.19-.7,2.39-1,3.58-.1-.26-.2-.56-.33-.86a42,42,0,0,0,0-6.44,123,123,0,0,0-.16-15.24,1.26,1.26,0,0,0-.7-1.07c-.23-2.19-.53-4.35-.93-6.54a1,1,0,0,0-.5-.73,1.42,1.42,0,0,0-.83-.13,1.19,1.19,0,0,0-.26-.33c-.13-.43-.27-.83-.37-1.26a1.27,1.27,0,0,0,1.16.29,1.43,1.43,0,0,0,.87-.63q1.79,5.53,3,11.26a163.24,163.24,0,0,1,3.35,36.46A3.9,3.9,0,0,1,1700.28,527.07Z"/><path class="cls-3" d="M1552.43,692.5Z"/><path class="cls-3" d="M1687.4,454.21c-.6-1-1.23-2-1.86-2.95.36.73.7,1.46,1,2.19s.63,1.19.9,1.79A1.15,1.15,0,0,0,1687.4,454.21Zm-37.76,239.26c-.66,3.71-1.29,7.47-1.89,11.19a2.2,2.2,0,0,0,2.06-2.36C1649.64,699.38,1649.61,696.42,1649.64,693.47Zm-8.43,36.75c-2.33,4.79-4.68,9.57-7.11,14.32-.7,1.42,1.43,2.69,2.16,1.26,1.13-2.23,2.26-4.48,3.35-6.71s2.33-4.68,3.49-7c.5-2.92,1-5.88,1.5-8.83C1643.47,725.58,1642.34,727.9,1641.21,730.22Zm-31-331.79a118,118,0,0,1,24.07,8A55.26,55.26,0,0,0,1610.23,398.43Zm-43.34-3.62a1.31,1.31,0,0,0-.83.4,179.65,179.65,0,0,1,22.38.16A148.93,148.93,0,0,0,1566.89,394.81Zm-32.57,3h0l-.33,0a1,1,0,0,0-.86,1.13c6.91-1.16,13.85-2.16,20.79-2.89A183.53,183.53,0,0,0,1534.32,397.83Zm-16.11,3.78a.9.9,0,0,0-.56.37q5.77-1.25,11.62-2.29C1525.58,400.25,1521.9,400.88,1518.21,401.61Zm-4.22.7c-.76.13-1.52.3-2.32.43a1,1,0,0,0-1.13-.76,58.26,58.26,0,0,0-9.36,1c1.33.39,2.62.89,3.92,1.39a1,1,0,0,0,1.12-.2,1.46,1.46,0,0,0,.87.1c2.62-.6,5.28-1.19,7.93-1.76A1.17,1.17,0,0,0,1514,402.31Zm-15.34-2.56c-1.79.17-3.58.3-5.41.44-.13,0-.2.13-.33.16a9,9,0,0,1-1,.1h-.57a64.93,64.93,0,0,1,7.54,1.76h.14C1500.38,402,1500.05,399.66,1498.65,399.75Zm-9-.13a35.3,35.3,0,0,0-5.61-.16,59.6,59.6,0,0,1,6.57.86A1.32,1.32,0,0,0,1489.69,399.62Zm-10.89-.83c-.1,0-.2,0-.34.07v0s-.1,0-.13,0c-.53.06-1.09.13-1.63.23,1,0,2,0,3,.07A.82.82,0,0,0,1478.8,398.79Zm-19.46,1.86c-.24,0-.5.1-.73.13a1.21,1.21,0,0,0-.9-.1q-3,.9-6,1.9c2.73-.73,5.45-1.36,8.24-1.86A1.28,1.28,0,0,0,1459.34,400.65ZM1415,418.32c3.89-2.33,7.87-4.45,11.92-6.45A69.6,69.6,0,0,0,1415,418.32Zm-23.48,15.87q5.88-4.53,12.12-8.73A93.7,93.7,0,0,0,1391.56,434.19Zm-32.8,28.09c-1.3,1.5-2.56,3-3.82,4.52,1.62-1.66,3.25-3.32,4.88-4.85A.9.9,0,0,0,1358.76,462.28ZM1329,495.06a122.59,122.59,0,0,0-15.07,19.46,1.08,1.08,0,0,0,.53,1.66c0,.1-.1.16-.14.26q6.53-9.41,13.62-18.53t14.71-17.76A200.79,200.79,0,0,0,1329,495.06Zm-17.53,24.64c-.1.16-.2.43-.33.66a1.14,1.14,0,0,0-.9.53c-1.59,2.62-3,5.35-4.35,8.1,2.23-3.48,4.52-6.9,6.91-10.32A3.32,3.32,0,0,0,1311.47,519.7Zm-6.21,10.06a.74.74,0,0,1-.1.16,1.08,1.08,0,0,0-1.23.6l-3,5.91a1,1,0,0,0-.93.63c-1,2-2,4.05-3,6.11,2.79-4.65,5.68-9.23,8.63-13.74A1,1,0,0,0,1305.26,529.76Zm-12.65,20.59c-.43.73-.83,1.52-1.26,2.29.49-.87,1-1.73,1.49-2.56A.85.85,0,0,0,1292.61,550.35Zm-3,3.58c-1.79,3.42-3.39,6.88-4.85,10.43,2-3.69,4-7.34,6.14-11A1,1,0,0,0,1289.62,553.93Zm-7.24,14.38a1.12,1.12,0,0,0-1.56.47,66.88,66.88,0,0,0-7.07,15.87s0,0,0,.06c-2.49,5.72-5.18,11.33-8,16.87a1.16,1.16,0,0,0-1.73.73l-2,7.87c6.68-14.81,13.85-29.42,21.62-43.7A18.07,18.07,0,0,0,1282.38,568.31Zm-21.88,43.37a1.37,1.37,0,0,0-1.86,0,2.78,2.78,0,0,0-.23.5v.07c-.44,2.82-.83,5.64-1.27,8.43,0,0-.1.07-.13.13l-.1.3a0,0,0,0,1,0,0c-.73,1.7-1.4,3.43-2,5.19,2-4.72,4-9.4,6.17-14.05A4.76,4.76,0,0,0,1260.5,611.68ZM1254,627c-.93,1.86-1.76,3.75-2.49,5.64a1.23,1.23,0,0,0-1.79.73c-1,3.19-1.9,6.44-2.83,9.66a1.2,1.2,0,0,0-.83.8c-.66,2.23-1.23,4.48-1.86,6.74a1.11,1.11,0,0,0-.53.67q-.84,3.28-1.59,6.57c1.39-3.58,2.82-7.17,4.25-10.76,2.79-6.9,5.64-13.81,8.57-20.68A1,1,0,0,0,1254,627Zm-14.45,34.53-2.42,8.9a1.2,1.2,0,0,0-.5.63c-.7,2.13-1.36,4.25-2,6.38,2.09-5.62,4.21-11.19,6.37-16.77A1.2,1.2,0,0,0,1239.54,661.52ZM1227,697.15a36.25,36.25,0,0,0-2.62,7.94.77.77,0,0,0,0,.4q3-8.43,6.08-16.81A44.08,44.08,0,0,0,1227,697.15Zm-12.42,36c1.06-3,2.12-6,3.19-9A30.53,30.53,0,0,0,1214.54,733.11Zm-.66,1.1c-.07.1-.07.2-.14.3-.36.76-.66,1.53-1,2.29a1.12,1.12,0,0,0-.8.83c-.3,1.56-.59,3.09-.93,4.62a1.32,1.32,0,0,0,.07.63c1.06-3,2.12-6.08,3.19-9.1A.86.86,0,0,0,1213.88,734.21Zm-6.51,19.13a136.9,136.9,0,0,0-8,21.91.78.78,0,0,0,0,.3.75.75,0,0,1-.1.2,5.15,5.15,0,0,1-.13.53,1.32,1.32,0,0,0-1,.83,49.83,49.83,0,0,0-1.9,7.44q5.73-15.84,11.33-31.71A1.87,1.87,0,0,1,1207.37,753.34ZM1193.62,789l-.93,3.35a1.06,1.06,0,0,0-1,.87c-.33,1.82-.56,3.65-.86,5.44a119.11,119.11,0,0,0-5.18,14.22c3.18-8.21,6.27-16.48,9.29-24.74A1.14,1.14,0,0,0,1193.62,789Zm-11.95,33.7a74.27,74.27,0,0,0-5.18,13.09.34.34,0,0,0,0,.2c1.26-3,2.46-6,3.65-9,.64-1.56,1.23-3.09,1.83-4.65A1.32,1.32,0,0,0,1181.67,822.7ZM1173.56,843c-1.62,3.45-3.32,6.87-5,10.26a1.27,1.27,0,0,0-.07.93,88.33,88.33,0,0,0-5.28,12.72Q1168.55,855.08,1173.56,843Zm-14.47,32a1.11,1.11,0,0,0-.87.53c-.3.46-.53.93-.83,1.39a1.18,1.18,0,0,0-1,.87c-.13.5-.23,1-.33,1.52a132,132,0,0,0-6.48,12.29,1.35,1.35,0,0,0,.93,1.86c.3-.53.57-1.1.83-1.63,3.13-6.27,6.18-12.58,9.1-19C1160,873.61,1159.52,874.31,1159.09,875Zm-4.92,81.85c-.63.8-1.26,1.6-1.93,2.39-2.59,3.19-5.18,6.41-7.73,9.63-.93,1.2.66,2.92,1.72,1.8a1,1,0,0,0,1.33-.27c2-2.42,4-4.72,6-7.11.1-.1.2-.23.3-.33a1.06,1.06,0,0,0,.73-.4c.33-.4.7-.79,1-1.19C1155.1,959.91,1154.64,958.39,1154.17,956.89Zm-5.31-17.1c-1.13-3.62-2.66-7.47-3.92-11.39-.47.7-1,1.4-1.43,2.09l-.26.37c-1.76,2.46-5.35,6.77-2.23,9.4a1.36,1.36,0,0,0,.4.23,7.15,7.15,0,0,0,.23,2.62,1.3,1.3,0,0,0,1,.86c-.13.24-.26.47-.36.7a1.23,1.23,0,0,0,.53,1.7c-.53.79-1.1,1.56-1.6,2.35a1.13,1.13,0,0,0,.07,1.33c-2.23,3.59-4.45,7.17-6.58,10.83a1.25,1.25,0,0,0,1.7,1.69,49.29,49.29,0,0,0,4.75-3.55c-1.6,2.52-3.16,5.08-4.65,7.67-.7,1.19,1,2.62,2,1.52,2.92-3.48,5.74-7,8.66-10.46a1.06,1.06,0,0,0,1.17-.29c.43-.5.83-1,1.26-1.5.06,0,.13,0,.2,0-.4.47-.8.9-1.17,1.37-1,1.23.67,3,1.76,1.76l1.37-1.53c.63-.73,1.29-1.46,2-2.23C1152.08,950.18,1150.45,945,1148.86,939.79Zm-7.67,15.84c-.07.07-.07.17-.1.23-.27.23-.57.47-.83.73,1.13-1.86,2.22-3.72,3.38-5.54a1.15,1.15,0,0,0,.67.33C1143.25,952.81,1142.22,954.2,1141.19,955.63Zm7.87-61.27c-.07.07-.14.17-.2.24v0a19.8,19.8,0,0,0-3.59,6.77,1.11,1.11,0,0,0,.47,1.27c1.39-3,3-5.85,4.48-8.67A1,1,0,0,0,1149.06,894.36Z"/><path class="cls-3" d="M1490.88,485.23c-1-3.39-1.92-6.78-3-10.13a.85.85,0,0,0-.27.63c-.06-.23-.13-.46-.2-.7a1.07,1.07,0,0,0-.83-.83c-.16-1-.33-2-.56-3a1.24,1.24,0,0,0-2.43.34c0,.53.1,1.06.14,1.59,0,0-.07.1-.14.13-.26-1.23-.56-2.45-.86-3.68a1.12,1.12,0,0,0-1.56-.8c-.27-.26-.8-.83-1.16-.9l-.4-.83a1.27,1.27,0,0,0-2.29.3c-.5,1.2.06,1.73.8,2.23,1.26,2.42,2.49,4.81,3.75,7.24.06.23.1.49.16.73v.33a1.23,1.23,0,0,0,1.2-1.53,1.63,1.63,0,0,1-.07-.33c.33,1,.63,2,1,3.05a1.28,1.28,0,0,0,2.22.37c.63,2.16,1.3,4.28,2,6.44A1.26,1.26,0,0,0,1490.88,485.23Zm63.56,78.2a2.73,2.73,0,0,1-2.32.46,10.33,10.33,0,0,1,.29,2.66,15.27,15.27,0,0,0,7.84-.43C1558.29,565.32,1556.37,564.43,1554.44,563.43Zm5.31-7.34a1.16,1.16,0,0,0,.14.23c.53.33,1.06.67,1.59.93.1-.16.2-.33.33-.5A16,16,0,0,0,1559.75,556.09Zm13-30.68-2.52-4.29a2.47,2.47,0,0,1-.83.63,2.73,2.73,0,0,1-.63,1.83q2,2.79,3.88,5.68a2.43,2.43,0,0,1,1-.53C1573.33,527.6,1573,526.5,1572.7,525.41ZM1594.62,635c-1.39,2.63-2.69,5.31-3.95,8a1,1,0,0,0-.9-.49c.23-.24.5-.47.73-.7a1.26,1.26,0,0,0,0-1.79c.1-.14.2-.24.3-.37a1.11,1.11,0,0,0-.5-1.66,44.6,44.6,0,0,1-12.45,10.46c-2.79,1.59-.3,5.88,2.52,4.32.33-.2.63-.37,1-.6a4.86,4.86,0,0,0-.66,0c.13-.63.27-1.27.4-1.86,2.22-1.9,4.38-3.79,6.54-5.78-1.29,1.92-2.59,3.85-3.88,5.74a1.28,1.28,0,0,0-.64.57l-.16.36a49.07,49.07,0,0,0,13.78-13.31c.1-.73.2-1.5.26-2.23C1597.08,634.39,1595.18,634,1594.62,635Zm4.55-1.06c.73-1.3,1.39-2.62,2-4a61,61,0,0,0,4.52-18.19Q1602.25,622.84,1599.17,634Zm10-55.72q-2.88-13.95-5.84-27.89c-2.33-5.25-4.72-10.5-7.21-15.71,2.79,8.7,5.78,17.33,8.77,25.93a2.23,2.23,0,0,1-1.23,2.79c.53.53,1,1,1.46,1.56a2.55,2.55,0,0,0,.2.34q1.44,5.18,2.69,10.36c-.43-.77-.9-1.53-1.36-2.26l.6,2.19c.26.6.56,1.23.83,1.83.09-.14.19-.27.26-.4.2.79.37,1.59.53,2.39.14.33.27.66.4,1C1609.2,579.67,1609.16,579,1609.13,578.24Z"/><path class="cls-3" d="M1431.59,733.84c.76-1-.7-2.33-1.71-1.71a7.69,7.69,0,0,0-1.79,1.61,2.57,2.57,0,0,0-.45-.2c-1.5-.43-2.62.35-3.9,1a8.43,8.43,0,0,1-.83.33,1.19,1.19,0,0,0-1.11.39,12.46,12.46,0,0,1-3.33.42l-1.86-.12a1.1,1.1,0,0,0-1.12,1.52c-.86.18-1.72.36-2.58.52a1.18,1.18,0,0,0-.69-.27,29.08,29.08,0,0,0-12,2.05.72.72,0,0,0-.19.11c-3,.44-6,.84-9.08,1.12a1.26,1.26,0,0,0-.92.52c-3.55.1-7.1.28-10.64.52-1.52-.43-3-.83-4.56-1.29a26.56,26.56,0,0,0-8.92-3,1.34,1.34,0,0,0-1.2.42,3.53,3.53,0,0,1-.32-.21,1.06,1.06,0,0,0-1.26,0,1.12,1.12,0,0,0-1.64.36,1.32,1.32,0,0,0-.62.78,1.61,1.61,0,0,0-.87,1,1.76,1.76,0,0,0,.15,1.33,1.53,1.53,0,0,0,1.36.79,1.35,1.35,0,0,0,.88-.37.71.71,0,0,0,.11-.17l.07,0a26.17,26.17,0,0,0,7.87,8.32q2.55,3.69,4.82,7.58a43.62,43.62,0,0,0,3.56,7.26,1.27,1.27,0,0,0-.07,1.25,30.68,30.68,0,0,0,1.85,3.44,1.8,1.8,0,0,1,.08.21,1.12,1.12,0,0,0-.76.9,1.25,1.25,0,0,0,.89,1.37h0a1.06,1.06,0,0,0,.86,1.09,14.63,14.63,0,0,0,6.22-.25,25,25,0,0,0,7.88-1.4,1.25,1.25,0,0,0,.49-.33c1.22.15,2.45.26,3.67.38-.11.27-.24.54-.33.83-.41,1.28,1.19,2,2.08,1.22a9.08,9.08,0,0,0,1.3-1.42,5.56,5.56,0,0,0,3.19,1.28,1.92,1.92,0,0,0,1.87-1.61l.16.1c.82.55,2.16-.35,1.83-1.33.42.26.83.56,1.26.81,0,0,0,0,.07,0,.64.47,1.26,1,1.93,1.4a1.22,1.22,0,0,0,1.8-.81c.07.33.16.66.23,1,.22,1.19,1.76,1.09,2.27.23a1.29,1.29,0,0,0,.93-.8c.06-.16.1-.33.16-.5a1.42,1.42,0,0,0,2-1.09,48.26,48.26,0,0,0,.27-5.1,1.23,1.23,0,0,0,2.13-.4,70.56,70.56,0,0,0,4.6-17.48,72.91,72.91,0,0,0,1.59-7.64.94.94,0,0,0,.43-.72c0-.11,0-.22,0-.33h0c.09-.71.19-1.41.28-2.12a1.49,1.49,0,0,0-.21-1l0-.1A9.36,9.36,0,0,0,1431.59,733.84Zm-52.59,14c-.51-.51-1-1-1.52-1.52.73.17,1.44.38,2.17.51a1.33,1.33,0,0,0,.9-.18h0a1,1,0,0,0,.87,1.19l.49.07C1381,747.85,1380,747.83,1379,747.81Zm5.36,10a1.3,1.3,0,0,0-.76.37q-.57-1.15-1.17-2.28l3.8.79c.48.32.93.66,1.38,1A25.22,25.22,0,0,0,1384.36,757.84Zm8.66-2.24c-.45-.88-.84-1.79-1.27-2.69a36.51,36.51,0,0,1,3.34,3.13Z"/><path class="cls-3" d="M1358.8,863.34a1.68,1.68,0,0,1-1.1-.42c-12.17-10.84-24.25-22.11-35.9-33.51-2.09-2-4.42-4.1-6.89-6.28-5.87-5.19-11.94-10.55-15.75-16.6a1.66,1.66,0,0,1-.2-1.32,1.69,1.69,0,0,1,.83-1,6.86,6.86,0,0,0,2.22-2.59c3.77-6.15,5.1-9.59,5-16.63,0-6.43-1.45-16.13-5.25-22.31l-.13-.26a493.47,493.47,0,0,1-22.09-71.54c-1.26-5.59-.77-12.59,4.78-13.94a6.59,6.59,0,0,1,5.65,1.28,97.66,97.66,0,0,1-1.53-13.22c-.13-2.7.49-6.62,2.67-8.73a5,5,0,0,1,4-1.46,7.6,7.6,0,0,1,4.85,2.83,29.12,29.12,0,0,1,6.41,11,6.3,6.3,0,0,1,1.82-.61c3.34-.57,7.11,1.19,9.36,3.2,6.33,5.64,10.73,14.39,15,22.85a137.27,137.27,0,0,0,6.72,12.36c8.17,12.73,17.06,25.2,26.44,37.06l1,1.32c4.56,5.75,9.28,11.69,12.13,18.65,9.1,22.24.76,46.12-5.94,65.31l-1.57-.55,1.57.55c-3.54,10.13-7.55,20.8-12.63,33.59a1.67,1.67,0,0,1-1.16,1A1.74,1.74,0,0,1,1358.8,863.34Zm-56-57.31c3.6,5.16,9,10,14.3,14.61,2.5,2.21,4.86,4.29,7,6.4,11.05,10.8,22.49,21.5,34,31.82,4.65-11.78,8.39-21.76,11.71-31.26h0c6.85-19.63,14.62-41.87,6-63-2.68-6.53-7.24-12.28-11.66-17.85l-1-1.32c-9.45-11.94-18.41-24.5-26.64-37.33a141,141,0,0,1-6.89-12.66c-4.11-8.18-8.36-16.64-14.22-21.86-1.89-1.69-4.73-2.72-6.58-2.4a2.34,2.34,0,0,0-1.81,1.23,1.66,1.66,0,0,1-1.69.85,1.67,1.67,0,0,1-1.39-1.29,26.11,26.11,0,0,0-6.34-12.17,4.8,4.8,0,0,0-2.68-1.77,1.7,1.7,0,0,0-1.42.53c-1.09,1.06-1.8,3.66-1.68,6.2a94.34,94.34,0,0,0,3.4,21,1.66,1.66,0,0,1-3.14,1.07c-.73-1.79-3.39-7.58-6.9-6.73s-3,6.9-2.33,10A489.25,489.25,0,0,0,1304.72,761c4.1,6.77,5.61,17.09,5.66,23.9.06,7.92-1.66,12.07-5.54,18.39A13.41,13.41,0,0,1,1302.81,806Z"/><path class="cls-1" d="M1398.74,515.88c-12.81,26-24.67,52.48-36.53,78.94l-22.83,51c-5.51,12.28-11.07,24.77-12.92,38.1-3.12,22.47,12.13,42.43,32,51.25,22.74,10.09,52.32,4.17,74.62-4.19-7.45,28-17.79,55.71-29.46,82.29-6.82,15.54-14.4,30.93-18.23,47.47s-3.59,34.74,4.69,49.56,25.92,25.08,42.46,21.24c8.12-1.89,15.15-6.78,22-11.59,8.59-6.08,17.25-12.31,23.91-20.45,9.75-11.89,14.41-26.78,19.13-41.15,4.39-13.34,12.35-26.73,14.43-40.61,1.36-9.12,2.06-18.42,3.91-27.45,1.67-8.18,5.4-16.11,7.58-24.33,11-41.4,17.4-83.88,28-125.35,11.25,8.32,27.72,5.82,37.79-3.89a40.76,40.76,0,0,0,9-14c3.8-9.25,5.33-19.67,2.8-29.34s-9.52-18.41-19-21.66-21.12-.1-26.6,8.27c-5.78,8.83-19.18,5-28.18-.56s-14.89-14.85-19.9-24.14a263.9,263.9,0,0,1-28.25-83.58c.63,2.79-4.77,4.11-7.21,5.6l-38.35,23.42c-10.12,6.18-20.84,12.55-32.69,13C1399.61,513.68,1398,514.91,1398.74,515.88Z"/><path class="cls-3" d="M1425.38,934c-14.27,0-28.89-8.81-36.76-22.89-7.59-13.56-9.31-31.59-4.87-50.75,3.25-14,9.21-27.33,15-40.22,1.12-2.51,2.25-5,3.35-7.54,12.41-28.26,21.76-54.13,28.55-79-17.87,6.33-48.49,13.88-72.86,3.06-22.36-9.93-35.91-31.72-33-53,1.9-13.66,7.57-26.31,13-38.55l22.84-51c11.57-25.83,23.53-52.52,36.24-78.37a2.65,2.65,0,0,1,.23-1.58,4.36,4.36,0,0,1,3.59-2.22c11.72-.4,22.43-6.94,31.88-12.72L1471,475.84a24.82,24.82,0,0,1,2.58-1.28c1.18-.52,3.89-1.74,3.89-2.48l0-.16a1.67,1.67,0,0,1,3.27-.62c0,.16,0,.31.07.45a260.74,260.74,0,0,0,28,82.7c4.88,9,10.6,18.16,19.31,23.51,7.06,4.33,20.45,9.42,25.92,1.07,5.71-8.72,18-12.55,28.53-8.93,9.54,3.28,17.22,12,20,22.81,3.1,11.81.16,23.05-2.86,30.39a41.72,41.72,0,0,1-9.4,14.58c-10.4,10-26.58,12.19-37.9,5.39-4.76,19-8.74,38.44-12.6,57.3-4.43,21.65-9,44-14.78,65.78-1,3.64-2.24,7.25-3.47,10.73a104.17,104.17,0,0,0-4.1,13.51c-1.15,5.65-1.87,11.53-2.56,17.21-.41,3.34-.83,6.78-1.33,10.15-1.34,9-5.08,17.74-8.7,26.22-2.07,4.83-4.2,9.81-5.79,14.66l-.5,1.54c-4.59,14-9.33,28.44-18.92,40.15-7,8.54-16.16,15-24.24,20.76-6.51,4.61-13.89,9.84-22.53,11.84A32.85,32.85,0,0,1,1425.38,934Zm7.68-204.68a1.67,1.67,0,0,1,1.12.43,1.64,1.64,0,0,1,.49,1.65c-6.89,26-16.56,53-29.55,82.53-1.1,2.53-2.23,5.05-3.36,7.57-5.7,12.74-11.6,25.91-14.78,39.61-4.25,18.36-2.64,35.54,4.53,48.38,8.43,15.07,25.9,23.85,40.64,20.43,8-1.86,15.1-6.89,21.36-11.32,7.91-5.61,16.88-12,23.59-20.15,9.2-11.23,13.84-25.39,18.33-39.09l.51-1.53c1.64-5,3.79-10,5.88-14.93,3.54-8.29,7.2-16.86,8.47-25.41.5-3.33.92-6.75,1.32-10.06.71-5.75,1.43-11.69,2.61-17.47a106.79,106.79,0,0,1,4.22-13.95c1.21-3.43,2.46-7,3.39-10.48,5.74-21.65,10.31-44,14.74-65.6,4-19.65,8.17-40,13.2-59.73a1.67,1.67,0,0,1,2.6-.92c10.08,7.45,25.74,5.8,35.65-3.76a38.6,38.6,0,0,0,8.63-13.45c4-9.72,5-19.77,2.72-28.29-2.55-9.73-9.41-17.59-17.91-20.51-9.17-3.14-19.77.12-24.67,7.6-6,9.18-19.62,6.59-30.43-.05C1517,575,1511,565.48,1505.86,556a264,264,0,0,1-27.75-80,25,25,0,0,1-3.18,1.61,21.93,21.93,0,0,0-2.21,1.08l-38.35,23.43c-9.31,5.69-20.9,12.77-33.5,13.19a1.32,1.32,0,0,0-.51.2,1.62,1.62,0,0,1-.13,1.12c-12.8,26-24.85,52.89-36.5,78.89l-22.84,51c-5.39,12-11,24.45-12.79,37.65-3.21,23.12,13.83,41.87,31,49.5,24.72,11,56.57,2.07,73.36-4.23A1.69,1.69,0,0,1,1433.06,729.29Z"/><path class="cls-1" d="M1552.66,595.47a14.66,14.66,0,0,0-2,11.65c2.48,9.94,11.27,6.76,4.74,17.42-4.92,8-9.84,16.05-14.62,24.16a31.93,31.93,0,0,0,9.74,7.23,2.59,2.59,0,0,0,1.76.36,2.71,2.71,0,0,0,1.45-1.4c4.75-7.77,10.59-15.82,15.56-23.83,4.56-7.33,11.94-17.43,12.84-26.2.71-6.93-2.84-14.73-9.49-16.8A18,18,0,0,0,1552.66,595.47Z"/><path class="cls-3" d="M1551.9,658a4.87,4.87,0,0,1-2.1-.57,33.8,33.8,0,0,1-10.25-7.61,1.67,1.67,0,0,1-.2-2c4.62-7.84,9.46-15.73,14.13-23.36l.5-.82c3.18-5.19,2.37-5.94.22-7.93a15.29,15.29,0,0,1-5.15-8.22,16.38,16.38,0,0,1,2.22-13h0a19.61,19.61,0,0,1,21.87-8.09c7.9,2.46,11.38,11.4,10.64,18.56-.8,7.8-6.34,16.4-10.79,23.32-.81,1.25-1.58,2.45-2.29,3.59-2.4,3.87-5,7.79-7.58,11.58-2.71,4-5.52,8.23-8,12.24a4.27,4.27,0,0,1-2.43,2.14A3.32,3.32,0,0,1,1551.9,658Zm-9.05-9.54a30.36,30.36,0,0,0,8.38,6,1.94,1.94,0,0,0,.67.25s.17-.26.41-.65c2.49-4.07,5.32-8.29,8.06-12.37,2.52-3.76,5.14-7.66,7.51-11.48l2.31-3.63c4.26-6.62,9.56-14.85,10.29-21.86.61-5.93-2.34-13.18-8.33-15a16.2,16.2,0,0,0-18.09,6.72,13,13,0,0,0-1.79,10.35,12.14,12.14,0,0,0,4.18,6.58c3,2.77,4.65,5.11.36,12.1l-.5.83C1551.86,633.49,1547.26,641,1542.85,648.46Z"/><path class="cls-1" d="M1405.89,555.44c-5.47,5.84-14.84,12.14-21.49,17-8.8,6.43-17.94,12.23-26.47,19.07-4.13,3.31-12.64,6.67-15.19,11.33-2.33,4.25.16,10.43,1.8,14.44,4,9.67,10.76,17.67,15.46,26.9"/><path class="cls-3" d="M1360,645.84a1.64,1.64,0,0,1-1.48-.91c-2-3.85-4.36-7.58-6.67-11.18-3.21-5-6.52-10.14-8.85-15.84-1.66-4.07-4.45-10.88-1.72-15.87,1.89-3.45,6.41-6.12,10.39-8.47a47.34,47.34,0,0,0,5.22-3.36c5.41-4.33,11.14-8.31,16.67-12.15,3.25-2.26,6.61-4.59,9.86-7,1.19-.87,2.46-1.78,3.78-2.72,6.13-4.4,13.09-9.39,17.47-14.08a1.66,1.66,0,0,1,2.43,2.27c-4.61,4.93-11.71,10-18,14.51-1.31.94-2.57,1.84-3.75,2.7-3.28,2.4-6.66,4.74-9.92,7-5.5,3.81-11.18,7.75-16.49,12a49.79,49.79,0,0,1-5.61,3.63c-3.62,2.13-7.71,4.55-9.16,7.2-2,3.61.44,9.5,1.88,13,2.21,5.42,5.44,10.45,8.56,15.3,2.36,3.68,4.8,7.48,6.84,11.48a1.66,1.66,0,0,1-.73,2.23A1.69,1.69,0,0,1,1360,645.84Z"/><path class="cls-3" d="M1366.46,638.93A1.67,1.67,0,0,1,1365,638a141.72,141.72,0,0,0-7.4-13.09,1.66,1.66,0,1,1,2.79-1.79,144,144,0,0,1,7.59,13.4,1.67,1.67,0,0,1-.75,2.23A1.63,1.63,0,0,1,1366.46,638.93Z"/><path class="cls-3" d="M1444.42,598.47a20.93,20.93,0,0,1-16.74-8.08,1.66,1.66,0,0,1,2.67-2c5,6.79,15.73,8.79,22.89,4.29a1.66,1.66,0,0,1,1.77,2.81A19.92,19.92,0,0,1,1444.42,598.47Z"/><path class="cls-3" d="M1494.42,582.18a1.41,1.41,0,0,1-.4,0c-6.47-1.57-12.54-6.15-17.09-12.87-3.86-5.71-6.22-12-8.68-19.16a1.66,1.66,0,1,1,3.13-1.09c2.39,6.88,4.67,13,8.3,18.39,4.09,6,9.46,10.13,15.13,11.51a1.66,1.66,0,0,1-.39,3.27Z"/><path class="cls-3" d="M1382.46,573.48a10.2,10.2,0,0,1-9.08-5.55,1.66,1.66,0,0,1,3-1.43,6.83,6.83,0,0,0,7.79,3.41,1.66,1.66,0,0,1,1,3.17A9,9,0,0,1,1382.46,573.48Z"/><path class="cls-3" d="M1343.16,690.68c-.79,4.9,0,9.18,5.48,9.32,5.13.14,7.68-3.26,10.22-7.28a146.2,146.2,0,0,0,10-18.59,2.57,2.57,0,0,0-1.46-3.45c-3.77-1.39-10.43-4-11.18-4.25-3.54-1.26-4.43-.3-6,3.16-1.16,2.54-1.66,5.33-2.7,7.91S1344,685.66,1343.16,690.68Z"/><path class="cls-3" d="M1431.08,733.76a1.66,1.66,0,0,1-.81-3.12l7.44-4.12c22-12.13,42.7-23.58,61.85-39a1.66,1.66,0,0,1,2.09,2.59c-19.38,15.6-41.22,27.67-62.33,39.33l-7.44,4.12A1.68,1.68,0,0,1,1431.08,733.76Z"/><path class="cls-3" d="M1316.32,746.62a1.66,1.66,0,0,1-1.58-1.16,526.08,526.08,0,0,0-24.76-63,1.66,1.66,0,0,1,3-1.41,530.37,530.37,0,0,1,24.91,63.4,1.66,1.66,0,0,1-1.07,2.09A1.81,1.81,0,0,1,1316.32,746.62Z"/><path class="cls-3" d="M1325.34,739.05a1.66,1.66,0,0,1-1.61-1.24c-5.93-22.89-12.7-45.87-20.13-68.31a1.66,1.66,0,1,1,3.16-1C1314.21,691,1321,714,1327,737a1.67,1.67,0,0,1-1.19,2A2,2,0,0,1,1325.34,739.05Z"/><path class="cls-4" d="M1792.93,868.46c-2.19,68.41-14,136-27.23,203-6.64,33.51-13.71,67-20.19,100.52-2.79,14.41-4.28,26.07-11.16,39.25a169.47,169.47,0,0,1-23.71,34.37c-27.19,30.55-70.76,42.4-108.65,55.35q-96.23,32.93-193.19,63.73c-32.64,10.36-65.32,20.72-98.09,30.58-13.12,4-17.37-.53-24-12-5-8.7-8.07-18.39-13.15-27.06-8.56-14.65-17.53-29.09-25.8-43.93-9.06-16.34,12.06-21.42,24.51-28.86,15.41-9.26,30.62-18.86,45.82-28.49,16.71-10.53,33.64-20.82,50.15-31.71-5.32-2-13.49.59-19.23.69-9.63.2-19.26-.2-28.89-.56-19.29-.73-38.55-2-57.85-2H1196c-19.89,24.87-41.74,47.91-68.87,64.52-20.06,12.25-36.19,15.07-58.77,12.85-18.43-1.83-39-7.34-49.18-24.24-4.39-7.21-6.25-15.64-7.51-24a192.89,192.89,0,0,1,15-107.42c9.86-21.75,23.71-41.45,37.59-60.9,28.82-40.35,58.34-80.3,89.13-119.25.59-.8,1.23-1.59,1.89-2.39q13-16.44,26.33-32.67,31.14-37.76,64.16-73.86,16.57-18,33.7-35.46c4.52-4.58,9-9,14.58-12.19,1.86-1.09,3.12-.49,5-.83.5,0,2.06,3.36,2.32,3.76a36.33,36.33,0,0,0,4.62,5.21c7.87,7.6,16.27,14.68,24.11,22.31,3.55,3.39,18.43,17.11,22.05,20.46,1.42,1.29,2.79,2.72,4.25,4,.66.56,2.06,2.19,3,1.46a1.69,1.69,0,0,0,.57-.7c.23-.46.4-.93.59-1.39.47-1.1.83-2.3,1.3-3.36.7-1.62,1.29-3.29,1.86-4.95.73-2.25,1.56-4.51,2.46-6.7,3.55-8.7,6.7-17.44,9.63-26.4,2.82-8.57,5.44-17.87,6.31-26.9a63,63,0,0,0-.64-19.19c-.23-.93,14.72-3.16,16.21-3.32a101.15,101.15,0,0,1,11.42-.67c2,0,3.92,0,5.85,0,1.56,0,3.18,0,4.75,0a17.7,17.7,0,0,1,2.32.2c-.47,3.22-2,6.57-3.12,9.63a216.88,216.88,0,0,0-8.24,27.69c-5.18,21.72-7.34,45,.53,66.35,2.53,6.84,6.15,13.48,11.73,18.2s13.31,7.23,20.32,5.24a30.87,30.87,0,0,0,10-5.48c26.63-20,42.6-51.07,54.06-82.32,4.72-12.85,7.87-26.39,12.88-39.08,3-7.4,4.52-15.21,6.45-22.91,1.52-6.11,1.13-13.88,6.8-17.34,11.13-6.74,23.65-10.49,36.27-13.41,9.76-2.23,18.92-6.87,28.62-9,12.78-2.75,24.64-7.07,37.56-9.33,24.8-4.35,47.75-7.93,72.45-.46,24,7.24,45.76,22.25,60,43C1793.39,776.75,1794.36,824.2,1792.93,868.46Z"/><path class="cls-1" d="M1291.7,1390.88c-15.31-25.56-27.68-52.61-42.47-78.37-1.22-2.12-22.29,6.8-25.51,8-12.81,4.84-25.3,10.48-37.76,16.14-3.6,1.64-43.24,19.12-33.51,26.83,5.52,4.36,19.18-.36,25.65-1.63,8.24-1.61,19.66-7.42,28-5.6-5.09,8.09-14.91,13.56-22.78,18.62-10.72,6.88-22.35,12.66-33.44,18.94-10.75,6.09-22.13,11-32.85,17.18-6.14,3.55-13.93,7.49-18.07,13.46-8.57,12.33,14.82,9.16,20.56,7.31-3.22,1.19-3.52,6.1-1.21,8.63s6,3.13,9.48,3.09a35.86,35.86,0,0,0,15-3.55c-1.25,1.19-.93,3.39.25,4.65a8.29,8.29,0,0,0,4.64,2.06,30.58,30.58,0,0,0,17.76-2.1c-.67,2.07,2.26,3.32,4.44,3.43,15,.73,31.23-5.49,44.64-11.36,16.72-7.32,33.66-14.11,48.89-24.27C1265.81,1410.74,1293.29,1393.53,1291.7,1390.88Z"/><path class="cls-3" d="M1172.32,1449.71c-.86,0-1.7,0-2.54-.06-1.93-.1-4.38-.92-5.49-2.54l-.16-.24a32.56,32.56,0,0,1-16.77,1.43,9.79,9.79,0,0,1-5.54-2.57,5.66,5.66,0,0,1-1.44-3,37.55,37.55,0,0,1-12.56,2.38c-4.88,0-8.48-1.16-10.74-3.63a7.94,7.94,0,0,1-1.72-7.07v0c-6.25,1.09-15.95,1.7-19-2.4-1.61-2.17-1.21-5,1.21-8.5,3.88-5.59,10.56-9.37,16.45-12.71l2.16-1.24c5.58-3.22,11.42-6.13,17.06-9,5.23-2.62,10.64-5.32,15.79-8.24,3.71-2.1,7.54-4.18,11.25-6.19,7.38-4,15-8.14,22.11-12.7l3.1-2c6.22-3.91,13.17-8.28,17.62-13.94-4.73-.16-10.31,1.65-15.74,3.39a84.56,84.56,0,0,1-9,2.53c-1.21.24-2.74.61-4.36,1-7.4,1.82-17.54,4.31-22.63.29a5.07,5.07,0,0,1-2.13-4.77c.93-7.56,19.84-17.59,35.53-24.67l.45-.2c13.36-6.08,25.44-11.49,37.85-16.18l2.43-1c21-8.46,23.92-8.41,25.11-6.33,6.73,11.74,13.07,23.92,19.19,35.71,7.34,14.12,14.93,28.73,23.26,42.64h0c1.15,1.91-.17,4.15-10.79,11.7-6,4.3-13,8.78-16.35,10.93l-1.67,1.08c-13.36,8.91-28.22,15.34-42.58,21.56l-6.56,2.85C1202,1443.91,1186.72,1449.71,1172.32,1449.71Zm-6.9-6.81a1.67,1.67,0,0,1,1.58,2.17c0,.08,0,.09,0,.16a4.45,4.45,0,0,0,2.92,1.1c14.45.71,30.3-5.27,43.89-11.22l6.58-2.86c14.23-6.16,28.95-12.52,42-21.27l1.72-1.11c20.35-13.09,24.86-17.31,25.78-18.66-8.26-13.83-15.77-28.3-23-42.29-6-11.59-12.24-23.57-18.84-35.09-1.59,0-6.69,1.4-21.27,7.26-1.15.46-2,.81-2.5,1-12.31,4.66-24.34,10.05-37.65,16.1l-.45.21c-24.11,10.87-33.17,18.52-33.6,22a1.81,1.81,0,0,0,.89,1.77c3.81,3,13.42.65,19.78-.91,1.66-.41,3.23-.8,4.51-1a81.13,81.13,0,0,0,8.6-2.43c6.56-2.11,14-4.49,20.08-3.16a1.65,1.65,0,0,1,1.18,1,1.67,1.67,0,0,1-.13,1.52c-4.65,7.38-12.92,12.59-20.22,17.18l-3.08,2c-7.19,4.63-14.88,8.8-22.32,12.83-3.69,2-7.51,4.07-11.19,6.16-5.23,3-10.67,5.68-15.94,8.31-5.6,2.8-11.4,5.7-16.9,8.87-.7.41-1.43.82-2.18,1.24-5.58,3.17-11.91,6.76-15.36,11.72-1,1.5-2.1,3.51-1.27,4.63,2.25,3,14.62,1.88,20,.16a1.66,1.66,0,0,1,1.09,3.13,2.59,2.59,0,0,0-1.52,1.91,4.71,4.71,0,0,0,1,4c1.59,1.74,4.36,2.61,8.23,2.55a34.1,34.1,0,0,0,14.27-3.38,1.66,1.66,0,0,1,1.88,2.69c-.49.46-.33,1.63.31,2.31A7,7,0,0,0,1148,1445a29,29,0,0,0,16.79-2A1.71,1.71,0,0,1,1165.42,1442.9Z"/><path class="cls-3" d="M1165,1446.77a1.66,1.66,0,0,1-.72-3.16c14.31-6.81,29-13.27,43.71-19.19a1.66,1.66,0,1,1,1.24,3.08c-14.63,5.9-29.28,12.33-43.52,19.1A1.65,1.65,0,0,1,1165,1446.77Z"/><path class="cls-3" d="M1142,1441.67a1.66,1.66,0,0,1-.69-3.17l31-14.15c6.92-3.16,14.07-6.43,20.06-11.2a1.66,1.66,0,0,1,2.07,2.6c-6.31,5-13.65,8.38-20.75,11.62l-31,14.15A1.68,1.68,0,0,1,1142,1441.67Z"/><path class="cls-3" d="M1118.16,1434.11a1.66,1.66,0,0,1-.52-3.24,320.86,320.86,0,0,0,52.36-22.62,1.66,1.66,0,0,1,1.59,2.92,324.58,324.58,0,0,1-52.91,22.85A1.54,1.54,0,0,1,1118.16,1434.11Z"/><path class="cls-1" d="M1368.58,1224a1.66,1.66,0,0,1-.68-3.17l211.71-95.93L1616,906.61a1.66,1.66,0,1,1,3.28.54l-36.53,219.16a1.64,1.64,0,0,1-1,1.24l-212.52,96.3A1.72,1.72,0,0,1,1368.58,1224Z"/><path class="cls-1" d="M1194.25,1225.66a1.63,1.63,0,0,1-.71-.16,1.65,1.65,0,0,1-.79-2.21L1362.1,864.66a1.66,1.66,0,0,1,3,1.42l-169.35,358.63A1.65,1.65,0,0,1,1194.25,1225.66Z"/><path class="cls-1" d="M1602.69,1159.25a1.68,1.68,0,0,1-1.28-.6l-16.6-19.92a1.66,1.66,0,0,1,2.55-2.13l16.6,19.93a1.66,1.66,0,0,1-1.27,2.72Z"/><path class="cls-1" d="M1622.61,1142.65a1.7,1.7,0,0,1-.58-.11l-26.57-10a1.66,1.66,0,1,1,1.17-3.11l26.56,10a1.66,1.66,0,0,1-.58,3.22Z"/><path class="cls-3" d="M1817.35,568.59a11.48,11.48,0,0,0-7.33-8.17,26.06,26.06,0,0,0-14.18-1.51c-8.31,1.76-15.22,9.63-16.15,18a17.9,17.9,0,0,0,12.72,19.21c8.81,2.53,19,.47,24.43-7.25a19.2,19.2,0,0,0,1.24-2.07,7.45,7.45,0,0,0,1.78-5.1.7.7,0,0,0,0-.12A19.05,19.05,0,0,0,1817.35,568.59Zm-30.43,21.76a15.76,15.76,0,0,1-4.69-9.26c0-.19,0-.37,0-.56a11.71,11.71,0,0,0,1.11,3.17,8.87,8.87,0,0,0,1.42,3.38,9.91,9.91,0,0,0,3.29,3.22,9.75,9.75,0,0,0,2.32,2.26,9,9,0,0,0,2.78,1l.19.16A14.93,14.93,0,0,1,1786.92,590.35Z"/><path class="cls-3" d="M1799.6,598.81a27.94,27.94,0,0,1-7.65-1.09,19.49,19.49,0,0,1-13.91-21c1-9.19,8.53-17.55,17.46-19.44a27.57,27.57,0,0,1,15.14,1.59,13.18,13.18,0,0,1,8.27,9.09,20.51,20.51,0,0,1,2.6,13.6v0a9,9,0,0,1-2,6.12,21.17,21.17,0,0,1-1.27,2.12C1814.12,595.58,1807.16,598.81,1799.6,598.81Zm-5.11-3.88c7.18,1.52,16,0,21-7a15.54,15.54,0,0,0,1.12-1.88,1.38,1.38,0,0,1,.19-.28,5.78,5.78,0,0,0,1.41-3.83s0-.07,0-.1a1.81,1.81,0,0,1,0-.52,17.29,17.29,0,0,0-2.26-11.86,1.58,1.58,0,0,1-.21-.52c-.64-3.1-2.89-5.57-6.32-7a24.43,24.43,0,0,0-13.21-1.42c-7.47,1.58-14,8.85-14.85,16.55a18.21,18.21,0,0,0-.1,2.08,1.65,1.65,0,0,1,2.57,1,10.36,10.36,0,0,0,1,2.72,1.48,1.48,0,0,1,.16.49,7.48,7.48,0,0,0,1.16,2.74,8.36,8.36,0,0,0,2.73,2.69,1.9,1.9,0,0,1,.48.41,8.73,8.73,0,0,0,1.91,1.9,7.57,7.57,0,0,0,2.27.79,1.7,1.7,0,0,1,.61.28l.2.16a1.63,1.63,0,0,1,.55,2.05A1.75,1.75,0,0,1,1794.49,594.93Zm25.34-13.35h0Z"/><path class="cls-3" d="M1702.66,831.31a1.51,1.51,0,0,0,0,3A1.51,1.51,0,0,0,1702.66,831.31Z"/><path class="cls-5" d="M1529.26,731.11c-3.46,28.76-13,56.33-24.24,82.88-5.24,12.41-10.61,24.85-16.72,36.86-5.71,11.2-12.42,22.07-21.63,30.75-10.45,9.86-27.86,18.41-40.58,7.22-2.4-2.11-5.93,1.4-3.52,3.52,9.8,8.62,23.47,8.12,34.59,2.34,12.11-6.3,21.37-17.49,28.48-28.89,7.66-12.29,13.4-25.73,19.22-38.95,6.29-14.31,12.26-28.79,17.25-43.61a261.12,261.12,0,0,0,12.13-52.12C1534.63,727.94,1529.64,728,1529.26,731.11Z"/></g><g id="computer"><path class="cls-6" d="M1193.59,1125.11l-93.68-440.3a20.18,20.18,0,0,0-21-15.94l-500.63,30.9a18.31,18.31,0,0,0-17,21l65.22,434.82a11.12,11.12,0,0,0,11.92,9.44c12-1,546.34-28.37,546.34-28.37A9.56,9.56,0,0,0,1193.59,1125.11Z"/><path class="cls-5" d="M468.69,1434.86c-36.53-16.6,169.32-36.53,169.35-36.53.17-.59.47-1.59.83-3,11.59-41.45,116-426.47,133.09-459.65,4.65-3.25,11.79-5.68,20.42-7.3,3.16-.57,6.61-1.07,10.3-1.5a203.44,203.44,0,0,1,59,3,1,1,0,0,1,.29.07c14.25,3,26.3,7.74,32.75,14.11-2.59,15.21-76.48,420.06-81.69,450.51-.77,4.52-1.53,9-2.29,13.52,0,.07,0,.1,0,.17l6.75.66c9.79,1,29.25,3,51.9,5.78,19.36,2.36,41,5.24,60.93,8.47l1.39.19c3.16.54,6.35,1.07,9.5,1.63l3.46.6,4.51.83c4.92.9,9.57,1.86,14,2.79.23.07.46.1.7.17,10.82,2.35,19.79,4.81,25.66,7.3a.36.36,0,0,1,.24.1c.73.3,1.42.63,2.12,1s1.16.59,1.76,1a10.66,10.66,0,0,1,1,.66c.33.24.6.47.86.7a4.74,4.74,0,0,1,1.2,1.36C1006.63,1458.11,505.22,1451.46,468.69,1434.86Z"/><path class="cls-6" d="M468.69,1434.86c-36.53-16.6,169.32-36.53,169.35-36.53,3.92-.36,10.46,3.19,14.18,4.25a366.7,366.7,0,0,0,38.09,8.54,339.39,339.39,0,0,0,64.35,5,271,271,0,0,0,31.91-2.52c5.25-.73,10.5-1.63,15.71-2.72,2-.44,5.31-.54,7.11-1.63a7.63,7.63,0,0,0,1.36-1.13c0,.07,0,.1,0,.17l6.75.66c9.79,1,29.25,3,51.9,5.78l.73.2a100.17,100.17,0,0,0,13.41,2c10,1.2,20.09,2.23,30.09,3.69,5.58.83,11.16,1.66,16.7,2.56l1.39.19c3.16.54,6.35,1.07,9.5,1.63l3.46.6,4.51.83c4,.76,7.87,1.53,11.79,2.36.7.16,1.43.3,2.16.43.23.07.46.1.7.17,7.7,1.6,15.73,3.33,23.08,6.29.92.33,1.78.67,2.58,1a.36.36,0,0,1,.24.1c.73.3,1.42.63,2.12,1s1.16.59,1.76,1a10.66,10.66,0,0,1,1,.66c.33.24.6.47.86.7a4.74,4.74,0,0,1,1.2,1.36C1006.63,1458.11,505.22,1451.46,468.69,1434.86Z"/><path class="cls-1" d="M809.47,1409.34a1.1,1.1,0,0,1-.26,0,1.64,1.64,0,0,1-1.38-1.89c13.7-87,30.42-174.62,46.59-259.39,12.7-66.6,25.84-135.45,37.5-203.89-33.67-23.86-76.13-16.65-113.63-10.27l-7.15,1.2a1.66,1.66,0,1,1-.55-3.27l7.14-1.21c38.46-6.53,82-13.94,117,11.46a1.68,1.68,0,0,1,.66,1.63c-11.71,68.8-24.92,138-37.69,205-16.17,84.74-32.88,172.36-46.57,259.27A1.66,1.66,0,0,1,809.47,1409.34Z"/><path class="cls-7" d="M596.19,643.62c-11.47,0-23.59-3-35.49-8.93a1.66,1.66,0,0,1,1.47-3c14.28,7.08,28.81,9.86,42,8,15.12-2.07,28.2-10.36,35-22.18,7.46-13,7.08-29.67,6.77-43.07a1.68,1.68,0,0,1,1.62-1.7,1.66,1.66,0,0,1,1.7,1.63c.32,13.8.71,31-7.21,44.8-7.3,12.7-21.29,21.61-37.42,23.81A62,62,0,0,1,596.19,643.62Z"/><path class="cls-7" d="M634.16,523.66c1.8.32,3.81.34,5.27-.76a7.13,7.13,0,0,0,2.2-3.62c4.25-12.88-7.52-44.84-25.29-31.61C601.7,498.57,621.94,521.47,634.16,523.66Z"/><path class="cls-3" d="M706.36,1153.35a1.67,1.67,0,0,1-.86-3.09L770,1111.34a1.66,1.66,0,1,1,1.71,2.84l-64.5,38.93A1.7,1.7,0,0,1,706.36,1153.35Z"/><path class="cls-3" d="M663.89,1306a1.66,1.66,0,0,1-1-3l65.47-47.16a1.66,1.66,0,1,1,1.94,2.69l-65.47,47.16A1.59,1.59,0,0,1,663.89,1306Z"/><path class="cls-1" d="M769.21,1219a1.66,1.66,0,0,1-.92-3l59.77-39.85a1.66,1.66,0,1,1,1.84,2.76l-59.77,39.85A1.68,1.68,0,0,1,769.21,1219Z"/><path class="cls-1" d="M772.53,1328.6a1.66,1.66,0,0,1-.91-3l54-35.34a1.66,1.66,0,0,1,1.82,2.78l-54,35.34A1.69,1.69,0,0,1,772.53,1328.6Z"/><path class="cls-3" d="M765.89,1069.59a1.66,1.66,0,0,1-.86-3.08l83-49.81a1.66,1.66,0,1,1,1.71,2.84l-83,49.81A1.66,1.66,0,0,1,765.89,1069.59Z"/><path class="cls-3" d="M799.09,993.22a1.66,1.66,0,0,1-.85-3.09l66.41-39.85a1.66,1.66,0,0,1,1.71,2.85L800,993A1.7,1.7,0,0,1,799.09,993.22Z"/><path class="cls-1" d="M832.3,1069.59a1.66,1.66,0,0,1-.89-3.06l40.34-25.43a1.64,1.64,0,0,1,2.28.52,1.66,1.66,0,0,1-.51,2.29l-40.34,25.42A1.58,1.58,0,0,1,832.3,1069.59Z"/></g><path class="cls-7" d="M1876.27,1028.8a766.78,766.78,0,0,1,69-133.55c8.16-12.6,16.87-25.15,28.55-34.6,12.43-10.06,38.62-18.12,49.14-1.09,4,6.47,4.28,14.48,4.42,22.09.45,24.93-7.68,48.67-18.92,70.75a699.42,699.42,0,0,1-69.7,110c-9.8,12.67-66.87,88.82-78.61,40.88C1854.48,1080.4,1868,1049.58,1876.27,1028.8Z"/><path class="cls-7" d="M2042.69,990.37l0-.18c12.3-51,40.35-103.73,73.32-144.35,16.7-20.57,42.61-45,71.21-44.63,15.55.2,23.11,10.56,24.4,25.11,4.79,53.73-34,98.91-66.12,137.13-13.71,16.35-73.1,91.67-98.78,57.59C2039.68,1011.63,2040.06,1001.37,2042.69,990.37Z"/><path class="cls-7" d="M1987.34,1192c-3.69-5.38-3.07-13.89.71-22.27,13.74-30.4,35.73-62.67,61.52-84.6,11.41-9.7,47.71-39.7,64-27.59,23.61,17.53-15.71,65.63-26.44,78.62a227.83,227.83,0,0,1-66,54.69c-5.32,2.92-10.89,5.67-16.91,6.46C1995.68,1198.44,1990.21,1196.16,1987.34,1192Z"/><path class="cls-7" d="M2066.27,725c-2.43,6.2-4.79,12.71-4.26,19.35s4.78,13.46,11.31,14.82,12.66-2.82,17.89-6.84a523.38,523.38,0,0,0,62.22-56.55c27.15-29,51.86-63.29,55.94-102.81.54-5.17.54-10.9-2.79-14.88-3.06-3.66-8.15-4.85-12.9-5.18-34.25-2.38-56.52,30.58-74.6,55C2097.05,657.58,2079.77,690.64,2066.27,725Z"/><path class="cls-3" d="M1812.33,1538.55c-10,0-19.72-.52-28.27-1l-4.49-.22c-18.12-.83-40.67-1.87-48.87-21-4.72-11-4.13-22.86-3.56-34.36.14-2.89.29-5.88.34-8.76.47-25.18,1.51-44.42,3.38-62.36.78-7.45,2.1-14.91,3.37-22.12,1.13-6.39,2.29-13,3.07-19.5,1.92-16.18,5.49-30.75,9.28-46.17.76-3.1,1.53-6.22,2.29-9.39,4.21-17.54,11.14-30.68,20.58-39,11.32-10,27.72-12.5,42.26-13.58,28.43-2.12,57.19.48,85,3,20.42,1.84,37.3,4.32,53.08,17.81a37.44,37.44,0,0,1,8.25,9.32c6.6,11.18,5.45,27.91,3.22,44.34-2.08,15.35-7.94,30.86-13.4,44-1.58,3.82-3.22,7.64-4.8,11.34-1.92,4.47-3.73,8.7-5.47,12.95-5.51,13.47-11.46,27-17.21,40.12-3.89,8.84-7.9,18-11.74,27-7,16.47-16.41,29-28.37,42.8-5.66,6.51-11.84,13.21-19.81,17.34-6.76,3.5-14.37,4.89-20.94,5.79A202.86,202.86,0,0,1,1812.33,1538.55Zm21.47-274.92c-7.29,0-14.58.23-21.84.77-14,1-29.72,3.37-40.3,12.76-8.93,7.91-15.51,20.47-19.56,37.34-.76,3.17-1.53,6.3-2.29,9.4-3.77,15.32-7.32,29.79-9.22,45.77-.78,6.6-1.95,13.25-3.09,19.68-1.26,7.16-2.57,14.56-3.34,21.9-1.86,17.84-2.89,37-3.36,62.07,0,2.93-.2,6-.35,8.86-.54,11.12-1.11,22.62,3.3,32.89,7.38,17.18,28.78,18.16,46,19l4.52.22c20.35,1.1,37.3,1.76,54.84-.63,6.28-.86,13.55-2.18,19.85-5.45,7.45-3.86,13.39-10.3,18.83-16.57,11.76-13.54,21-25.85,27.83-41.92,3.84-9,7.86-18.19,11.75-27,5.74-13.08,11.68-26.61,17.17-40h0c1.75-4.27,3.66-8.71,5.49-13,1.58-3.69,3.22-7.5,4.79-11.3,5.38-13,11.15-28.22,13.18-43.19,1.34-9.89,4.13-30.48-2.79-42.2a34.21,34.21,0,0,0-7.55-8.49c-15-12.85-31.39-15.24-51.22-17C1875.87,1265.53,1854.81,1263.63,1833.8,1263.63Z"/><path class="cls-3" d="M2176.3,828.91c-19.82,21.76-36.18,46.21-52,70.93a88.8,88.8,0,0,1-.45-21,2.51,2.51,0,0,0-2.49-2.49,2.54,2.54,0,0,0-2.49,2.49,92.2,92.2,0,0,0,1.37,27,1.86,1.86,0,0,0,.1.2l-4.59,7.19c-4.93,7.74-9.89,15.47-14.95,23.13V906.81c0-3.21-5-3.21-5,0v33.06a2.21,2.21,0,0,0,1.25,2.07c-3.26,4.84-6.55,9.66-9.94,14.41-10.58,14.81-22.43,28.47-34,42.51-23.75,28.84-38.87,62.84-57.81,94.78-18.66,31.47-39.14,61.79-59.43,92.21-21.57,32.36-42.9,64.94-61.65,99a556.63,556.63,0,0,0-59.39-4.53c10.77-22.51,17.47-46.7,25.07-70.43q13.3-41.57,29.09-82.29c10.61-27.35,21.59-54.81,34.56-81.14,12.8-26,30.16-49.53,44.66-74.58.64-1.09,1.23-2.2,1.86-3.3a2.15,2.15,0,0,0,2-.26q18.75-11.94,36.38-25.54a2.58,2.58,0,0,0,.89-3.41,2.51,2.51,0,0,0-3.41-.89q-15.3,11.81-31.51,22.36,7-12.58,13.68-25.36,21.35-11.47,41.61-24.82c2.67-1.76.18-6.07-2.51-4.3q-17.09,11.26-35,21.18,10.47-20.7,19.89-41.92c1.29-2.91-3-5.44-4.3-2.52q-11,24.83-23.5,48.91a2.09,2.09,0,0,0-.77,1.49c-4.6,8.86-9.29,17.68-14.19,26.38q-10.53,18.71-22,36.9c-7.77,12.38-16,24.47-23,37.32-13.71,25.16-24.31,52.3-34.92,78.88q-16.17,40.55-29.9,82c-9.45,28.54-16.84,58.24-30.24,85.28-10.14,0-20.41.83-29.36,5.41-13.57,7,.2,13.63,7.88,15.76,10.88,3,22.32,3.37,33.53,3.72l67.91,2.09c7.86.24,15.73.48,23.59.32a231.28,231.28,0,0,0,24.11-1.77c2.27-.29,5.14-1.25,5.15-3.53a4.26,4.26,0,0,0-2-3.14c-3.35-2.52-7.55-3.57-11.64-4.52-1.52-.35-3-.66-4.56-1l61-86.94c18.21-26,36.17-52.16,56-76.9a3.16,3.16,0,0,0,2-.21q18.89-8,37.34-16.9c2.89-1.39.37-5.69-2.51-4.3-10.16,4.9-20.44,9.55-30.79,14l.71-.87q11.24-13.53,23.5-26.14a2.27,2.27,0,0,0,1.51,0q13.45-4.21,27.24-7.26c3.13-.69,1.8-5.49-1.33-4.8-7.05,1.55-14,3.41-20.94,5.43,3.17-3.11,6.38-6.18,9.67-9.18,2.37-2.16-1.16-5.68-3.52-3.52-25.39,23.15-47,49.93-67.32,77.58-21.78,29.71-42.6,60.15-63.77,90.31l-34,48.46q-19.42-4.11-39.11-6.86c33.92-61.27,76.1-117.42,112.65-177.08q14.37-23.44,27.3-47.71c8.72-16.32,17.45-32.68,28.57-47.53s23.7-28.22,34.88-42.88c10.46-13.72,20-28.07,29.39-42.56,21.12-32.77,41.2-66.49,67.57-95.43C2182,830.07,2178.47,826.54,2176.3,828.91Z"/><path class="cls-7" d="M2300.32,891.1c6.42-4.7,14.21-9,22-7.22,3.44,6.31,3.13,14.16.67,20.91s-6.86,12.61-11.42,18.16a259.11,259.11,0,0,1-32.86,33.3c-16.21,13.69-35.21,2-23.51-17.11C2265.83,921.73,2283.9,903.12,2300.32,891.1Z"/><path class="cls-7" d="M605.12,888.86c-28.69,0-55.76-9.66-80.85-28.9-33-25.33-60.41-57.35-86.9-88.32-33.74-39.44-61.34-84.75-79.8-131-20.95-52.5-29.24-103.19-24.64-150.66h0a213.3,213.3,0,0,1,29.53-89.74c17.24-28.35,40.61-50.37,67.59-63.7,25.24-12.46,52.72-17.35,76.27-20.5,26.61-3.55,57.85-6.06,87.79,2.19,57.9,15.94,99.27,69.74,129.47,109,4.22,5.49,8.84,11.16,13.73,17.17C757.38,469,780.13,497,785.83,525.62c8.58,43.1,13.81,83.66,15.13,117.3a257.43,257.43,0,0,1-63.71,178.84c-25.72,29.1-56.31,49.86-88.48,60A144.65,144.65,0,0,1,605.12,888.86ZM334.59,490.1l1.65.16c-8.61,88.9,30.13,193.28,103.65,279.22,26.38,30.84,53.66,62.73,86.4,87.84,36.57,28,77.45,35.22,121.48,21.3,31.59-10,61.67-30.41,87-59.06a254,254,0,0,0,62.88-176.51c-1.31-33.46-6.52-73.85-15.06-116.78-5.54-27.86-28-55.45-47.84-79.8-4.91-6-9.54-11.71-13.79-17.24C691,390.32,650.06,337,593.23,321.39c-29.37-8.09-60.19-5.6-86.47-2.1-23.28,3.11-50.43,7.94-75.24,20.19-52.26,25.81-88.77,83.58-95.28,150.78Z"/><path class="cls-1" d="M399.1,1069.78c-15.51,0-32.75-4.15-51.53-12.43-27.7-12.22-49-28.17-63.43-47.42-19.69-26.34-27.71-67.3-20-101.92,4.14-18.51,14.58-43.51,40.78-57.43h0c25.16-13.37,58.59-13.25,87.26.32,31.69,15,52,41.91,63.41,61.84,11.71,20.41,24.62,51.88,19.6,85.94-4.67,31.7-26,58.88-53,67.62A74.82,74.82,0,0,1,399.1,1069.78Z"/><path class="cls-7" d="M399.1,1069.78c-15.51,0-32.75-4.15-51.53-12.43-27.7-12.22-49-28.17-63.43-47.42-19.69-26.34-27.71-67.3-20-101.92,4.14-18.51,14.58-43.51,40.78-57.43h0c25.16-13.37,58.59-13.25,87.26.32,31.69,15,52,41.91,63.41,61.84,11.71,20.41,24.62,51.88,19.6,85.94-4.67,31.7-26,58.88-53,67.62A74.82,74.82,0,0,1,399.1,1069.78ZM306.52,853.51c-25.09,13.33-35.11,37.39-39.1,55.23-7.55,33.72.24,73.59,19.38,99.2,14,18.79,34.94,34.39,62.11,46.37,27.94,12.32,52.25,15.29,72.26,8.83,25.88-8.36,46.29-34.46,50.78-65,4.87-33.11-7.75-63.84-19.2-83.8-11.2-19.51-31-45.85-61.95-60.49-27.74-13.13-60-13.28-84.28-.39Z"/><path class="cls-7" d="M422.08,1001.71a1.06,1.06,0,0,1-.25,0l-42.13-6.43a1.66,1.66,0,0,1,.5-3.28l40.21,6.14-.11-48.47L376,994.53a1.66,1.66,0,1,1-2.36-2.34l47.18-47.74a1.66,1.66,0,0,1,2.84,1.17l.13,54.43a1.66,1.66,0,0,1-1.66,1.66Z"/><path class="cls-7" d="M377.91,921.61a1.66,1.66,0,0,1-1.55-2.25L387.15,891a1.66,1.66,0,1,1,3.1,1.18L380.42,918a112.42,112.42,0,0,0,29.78-7.64,1.66,1.66,0,1,1,1.26,3.08,115.92,115.92,0,0,1-33.4,8.14Z"/><path class="cls-7" d="M343.4,980.31l-.24,0a1.65,1.65,0,0,1-1.4-1.88,291.17,291.17,0,0,0,2.91-34.28,154,154,0,0,1-30,12.76,1.66,1.66,0,0,1-1-3.18,150.44,150.44,0,0,0,31.9-13.9,1.66,1.66,0,0,1,2.49,1.46,292.58,292.58,0,0,1-3,37.62A1.66,1.66,0,0,1,343.4,980.31Z"/><path class="cls-7" d="M509.06,620.79c3.83,2.43,8.76,3.93,12.9,2.07s6.19-6.35,6.78-10.73a24,24,0,0,0-4-16.72,32.06,32.06,0,0,0-4.37-4.94,28,28,0,0,0-10.75-6.67C485.77,576.64,497.65,613.57,509.06,620.79Z"/><path class="cls-1" d="M1189.83,1617.87a4.92,4.92,0,0,0,.26.58,13.41,13.41,0,0,0,2.89,3.45c17.06,16.17,33.19,33.35,50.53,49.32,3,2.81,6.65,5.79,10.77,5.37A14.85,14.85,0,0,0,1259,1675q76-36.39,149.86-77c7-3.87,14-7.75,20.91-11.88,5.57-3.35,11.76-6,12-13.1l.38-10.52a9.26,9.26,0,0,0-.22-2.93c-1.91-6.4-13.45-12.3-18.49-16.3l-22-17.48c-6.36-5-12.74-10.11-19.54-14.56-5.12-3.34-13.65-10.53-19.79-7.19l-94.34,51.36c-16.66,9.06-33.34,18.14-49.38,28.29-8.52,6.39-17.9,13.27-27.92,16.85a1.79,1.79,0,0,0-.92.56,1.84,1.84,0,0,0-.23,1l-.17,10A14.81,14.81,0,0,0,1189.83,1617.87Z"/><path class="cls-3" d="M1442.73,1557.21c-1.67-3.82-6.06-6.53-9.1-9.16-7.68-6.64-15.39-13.24-23.28-19.64-7.6-6.16-15.35-12.13-23.37-17.73q-5.94-4.15-12.08-8c-2.68-1.68-6-4.71-9.19-2.89a1.24,1.24,0,0,0-.21.18c-9.55,3.46-18.26,8.63-27.07,13.62-10.45,5.93-21.66,10.27-32.15,16.09-9.89,5.48-19.07,12-29.11,17.32-7.93,4.15-15.9,8.22-23.33,13.18a608,608,0,0,0-59.82,35.3,16.35,16.35,0,0,0-3.65,2.44c-.51.36-1,.68-1.54,1s-1.23,18.13-.31,19.6c.23.36,20.58,23.09,31.41,33.41q8.13,7.75,16.72,15c4.8,4,9.72,8.64,15.26,11.64a6.1,6.1,0,0,0,1.92.75c1.73.28,3.63-1.08,5.09-1.82l5.84-3,11.67-5.93q11.65-6,23.3-12,23.26-12,46.45-24.18t46.24-24.56l9.69-5.21c13.42-7.23,27.23-14.08,40-22.42a1.17,1.17,0,0,0,.48-.61,1.14,1.14,0,0,0,.36-.85q.12-9.63.22-19.24A6.92,6.92,0,0,0,1442.73,1557.21Zm-41.55-32.88c2.3,1.79,4.6,3.58,6.87,5.41q4.44,3.59,8.82,7.27c-2.14-1.62-4.24-3.27-6.45-4.79a1.05,1.05,0,0,0-.72-.19l-1.3-1.11a71.38,71.38,0,0,0-7.29-5.92A1.11,1.11,0,0,0,1401.18,1524.33Zm-.48,28.94a.84.84,0,0,0,.29-.58,12.45,12.45,0,0,1,3.77-.58,4.65,4.65,0,0,1,4,2.15c.21.37.41.75.64,1.11.06.12.14.23.2.36a4.6,4.6,0,0,1,.18.8,4,4,0,0,1-.64,2.25,1.47,1.47,0,0,0-.47.26c-.8.69-1.61,1.37-2.42,2a4.76,4.76,0,0,1-.6.21,5.08,5.08,0,0,1-5.38-1.69A4.47,4.47,0,0,1,1400.7,1553.27Zm-8.87-25.87,1,.71,1.19,1.62a1,1,0,0,0-.17.33c-.08-.06-.16-.1-.23-.16l-1-.88c-1.36-1.18-2.78-2.3-4.25-3.34-.11-.2-.21-.41-.32-.6C1389.3,1525.88,1390.55,1526.65,1391.83,1527.4Zm-10.53-7.06c.68.72,1.31,1.49,1.93,2.27a1.09,1.09,0,0,0-.87.49,27.68,27.68,0,0,1-2.56-4C1380.3,1519.53,1380.79,1520,1381.3,1520.34Zm-9.9,28.65a1.1,1.1,0,0,0,.57-1c1.17.63,2.36,1.21,3.52,1.86-.13.22-.25.44-.37.66-1.34-.44-2.68-.91-4-1.37Zm-1,48.69c4.17-2.12,8.38-4.14,12.6-6.16q-10,5-19.9,10.38Zm-8.45-37.89c-2.1-.56-4.21-1.11-6.32-1.69.79-.48,1.56-1,2.35-1.45q2.76,1.18,5.5,2.4C1363,1559.3,1362.51,1559.53,1362,1559.79Zm4.36,36.58c-.12.51-1.31.84-1.7,1s-.52.13-.78.2a1.11,1.11,0,0,0,.27-1.54l.77-.42.29.05C1365.62,1595.73,1366.47,1595.9,1366.36,1596.37Zm-4-76c.43.06.86.09,1.29.16.69.9,1.43,1.76,2.14,2.64l-.14,0c-.06,0-.06-.11-.14-.14a46.44,46.44,0,0,0-7.13-2.34,1.4,1.4,0,0,0-.62-.17l-.13,0a41.63,41.63,0,0,1,4.18,0A1.2,1.2,0,0,0,1362.35,1520.39Zm-11-5.52a26.29,26.29,0,0,1,9.07,1.41c-.61,0-1.23,0-1.84.08a1.41,1.41,0,0,0-1-.22c-1.27.17-2.54.29-3.81.42-2.12.06-4.24,0-6.37,0C1348.67,1516,1350,1515.41,1351.31,1514.87ZM1334.94,1587a2.48,2.48,0,0,0-.26.19,1,1,0,0,0-.35,1.13l-1.82,1.41c-.92-1-2.7.35-2,1.49l-.19.15-2.21-.08H1328l-.31,0c2.16-1.45,4.32-2.89,6.46-4.39l1.09-.79c.12.15.26.27.37.43l-.61.44,0,0Zm-6.43-48.22c2.28-.52,4.57-1,6.87-1.44a1.24,1.24,0,0,0,1.11.79l1.35.09-1.8,0a1.1,1.1,0,0,0-1.1.74c-1.58,0-3.15,0-4.73.12a1.17,1.17,0,0,0-1.15,1.14l-.37.07A1.32,1.32,0,0,0,1328.51,1538.73Zm3.08,45.82.87.19c-3.09,1.82-6.16,3.67-9.18,5.59-.09-.09-.2-.17-.3-.26Zm-3.6,22.27-1,.62a2.78,2.78,0,0,1-1.22-.42,1.16,1.16,0,0,0-.79-.54l-.16-.12c1-.66,2-1.31,3-2l.11,0c0,.09,0,.18,0,.28A7.46,7.46,0,0,1,1328,1606.82Zm5.18-55.87c.55-.34,1.12-.67,1.67-1,1.38,0,2.76.09,4.14.1a11.43,11.43,0,0,1,2,.72l.16.09-.81.46c-.78-.1-1.65-.25-2.1-.25C1336.55,1551,1334.86,1551,1333.17,1551Zm5.65,46.66h.32a1.35,1.35,0,0,0,1.1,1.82l.69,0c-.69.36-1.36.76-2,1.13-.3-.86-.61-1.71-1-2.53A1.32,1.32,0,0,0,1338.82,1597.61Zm0-27.15c2.09-2,4.24-4,6.49-5.87l2,.61c-.82.46-1.64.92-2.46,1.41a1,1,0,0,0-.76.48C1342.32,1568.17,1340.58,1569.31,1338.86,1570.46ZM1335.8,1525c.81-.16,1.61-.36,2.41-.57h.66c1.24,0,2.48,0,3.72,0l4.41.18-.59,0-7.5.22a1.27,1.27,0,0,0-1.09,1.8l-6.46.44Zm-3.82,9.86a1.22,1.22,0,0,0,.83-1c1.51-.12,3-.27,4.52-.44a1.1,1.1,0,0,0-.77,1.13c-2.78.41-5.54,1-8.29,1.66Zm-1.79,26.93c-.76.78-1.56,1.53-2.09,2.14s-.81.94-1.21,1.42h0c-.55-.09-1.09-.22-1.65-.29Q1327.69,1563.38,1330.19,1561.79Zm-7.15-35.52a1.37,1.37,0,0,0,.25.78l0,0c-1.94.89-3.93,1.68-5.9,2.49a1.51,1.51,0,0,0-.37-.22C1319,1528.38,1321,1527.33,1323,1526.27Zm-24.39,30.88,1.42-.89c2.12.29,4.24.59,6.37.84-.88.16-1.77.32-2.62.54C1302.09,1557.49,1300.37,1557.32,1298.65,1557.15Zm1.44,30.79c-.2.17-.38.35-.56.53-.81-.22-1.62-.41-2.43-.6l1.82-1.61Zm3.46-33.83,3.26-2,8.4.84-3.46,1.84C1309,1554.51,1306.28,1554.33,1303.55,1554.11Zm2.31,75.21a.83.83,0,0,0-.14-.22c.16-.15.33-.29.48-.44l0,0c.48-.13,1-.25,1.43-.4a1.55,1.55,0,0,0,.26.55,1.26,1.26,0,0,0,.2,1.25c-.44.26-.86.55-1.3.81s-1.09.43-1.62.67A2.11,2.11,0,0,0,1305.86,1629.32Zm.87-5.65,2.55-1.43a1.17,1.17,0,0,0,1,.53,20.71,20.71,0,0,1,2.24.19,9.67,9.67,0,0,1,1.11.26l-.56.14c-.59.14-1.18.25-1.78.35a23.81,23.81,0,0,1-3,.25A12.64,12.64,0,0,0,1306.73,1623.67Zm6.17-3.48c.87-.5,1.73-1,2.6-1.54.81-.07,1.59-.24,2.39-.37l-.17.12a1.3,1.3,0,0,0-.49,1.4C1315.79,1620,1314.35,1620.12,1312.9,1620.19Zm-2.48-70.34,0,0a1.21,1.21,0,0,0,.55-1.2l.45-.25c.94.11,1.89.16,2.83.26a5.25,5.25,0,0,0,1,.09c2.28.21,4.57.45,6.86.61l-2.23,1.16Q1315.16,1550.21,1310.42,1549.85Zm-6.39-16a1,1,0,0,0,.59.31l-.46.32a1.21,1.21,0,0,0-.52.78l-2.87,1.4c-.91.2-1.79.48-2.67.76C1300.06,1536.22,1302.05,1535,1304,1533.86Zm-13.66,10.65a65.5,65.5,0,0,0,14-4.67c.82-.19,1.66-.34,2.48-.55,3.35-.32,6.67-.78,9.95-1.41l-7.35,2.75c-1.23.3-2.47.57-3.7.87-.06,0-.07.07-.13.09a1.1,1.1,0,0,0-1.16,0c-1.6.9-3.17,1.85-4.76,2.77a1.28,1.28,0,0,0-1.85-1l-1.92,1a1.28,1.28,0,0,0-1.1,0q-3.42,1.56-6.81,3.16a1.37,1.37,0,0,0-.92-1.41Zm10.8,2c1.87-.26,3.74-.56,5.6-.87-8.55,4.33-17.09,8.72-25.35,13.57l-.23,0C1287.66,1554.64,1294.39,1550.5,1301.17,1546.46Zm-16.3,49.33c1.38,1.94,2.69,3.92,4.1,5.83a1,1,0,0,0-.18.55c-1.38-2-2.86-4-4.4-5.94,0,0,.09,0,.13-.09Zm-.21-14.79c.79-.77,1.57-1.54,2.4-2.28l.61-.36,1.68.2c-1,.8-2,1.62-3,2.44C1285.8,1581,1285.23,1581,1284.66,1581Zm3,3.82c.14-.07.27-.15.41-.21l4.09.19-1.58,1.56c-.49-.12-1-.21-1.48-.33C1288.68,1585.62,1288.21,1585.21,1287.71,1584.82Zm4.79,21.37,1.51,1.94.18.36-.92.83-.26-.34c-.42-.74-.85-1.47-1.29-2.2Zm.57-44.15-1.68-.11-.41,0c1.07-.66,2.14-1.32,3.2-2,.56.25,1.11.51,1.68.72C1294.92,1561.08,1294,1561.54,1293.07,1562Zm-13,15.48.15,0,3.11.36-.71.59-4.85,2.85c-.64-.11-1.27-.25-1.9-.39Q1277.92,1579.17,1280.05,1577.52Zm-15.39,2q2.74-2.1,5.55-4.14a1.19,1.19,0,0,0,.38.68c-.45.37-.89.75-1.33,1.13a8,8,0,0,0-.85.35,4.5,4.5,0,0,0-1.78,1.54l-2.61,1.39Zm4.42,54.49c-.46.49-.93,1-1.41,1.41-.13,0-.27-.06-.4-.09-.41-.24-.81-.49-1.21-.75.2-.27.43-.52.62-.8A21,21,0,0,1,1269.08,1634Zm-9.58-42.73c.83.23,1.66.47,2.51.66.42.74.83,1.49,1.25,2.22-.08.05-.11.14-.17.21-.78-.09-1.62-.16-2.5-.19l-1.26-1.35A5.39,5.39,0,0,1,1259.5,1591.23Zm-6.46,6.66c.17.18.33.38.5.56a4.81,4.81,0,0,0,.49,1.3,7.86,7.86,0,0,0-1.4.43l-1.07-1.14c.39-.55.81-1.09,1.2-1.64A1.29,1.29,0,0,0,1253,1597.89Zm-13.72-22c3.89-2.56,7.78-5.12,11.71-7.63l1.62-.92c-.43.41-.87.81-1.29,1.22-3,1.89-5.93,3.88-8.88,5.84a1.12,1.12,0,0,0-.13,0l-3,1.78A1.3,1.3,0,0,0,1239.32,1575.92Zm-12,8.66a1.09,1.09,0,0,0-1.19,0c-.9.58-1.74,1.24-2.62,1.85a1,1,0,0,0-1.22-.12l.85-.49a1.15,1.15,0,0,0,.37-.15l.91-.61,3-1.72A1.18,1.18,0,0,0,1227.33,1584.58Zm-4-2.51,3.38-1.89c-1.34,1-2.69,2-4,3l-6.19,3.61a1.14,1.14,0,0,0-1.22,0c-.49.29-1,.54-1.47.83l-.14,0-.29.13h0l0,0-.48.21Zm-19.85,24.5h0a3.37,3.37,0,0,0,1.11.22c.65.52,1.31,1,1.94,1.58a1.18,1.18,0,0,0,.17.59l-.45-.54a1.18,1.18,0,0,0-2,.64l-.08-.11c-.27-.46-.52-1-.78-1.42A1.2,1.2,0,0,0,1203.51,1606.57Zm40.67,63.39q-4-3.26-8-6.64-8.31-7.12-16.19-14.72a377.42,377.42,0,0,1-29.29-31.74,1.13,1.13,0,0,0-.31-.24,13.27,13.27,0,0,1-.06-3c0-1.55,0-3.1,0-4.64s0-3,0-4.47c0-.3,0-.61,0-.92a338.22,338.22,0,0,0,29.42,31c5.32,5,10.73,10,16.15,14.86,5.18,4.69,10.29,9.49,16.13,13.36l.07,0,.45,6.44.33,4.72a20,20,0,0,0,.25,2.08C1249.72,1675.12,1246.86,1672.13,1244.18,1670Zm8.61-20.6a1.28,1.28,0,0,0,.29-1.46,1.34,1.34,0,0,0,.6-.62,1,1,0,0,0,.83,1l.33,0h0c.46.08.9.11,1.35.17l0,.14a1,1,0,0,0,.53.47A18.84,18.84,0,0,0,1252.79,1649.36Zm117.12-32.22q-36.39,19.35-73,38.21-20.55,10.59-41.17,21a15.66,15.66,0,0,1-.42-3.4c-.1-1.46-.2-2.92-.31-4.37l-.4-5.76c4-.88,11.61-4.7,11.83-4.81q4.36-2.13,8.6-4.36c20.51-9.21,39.82-21.64,59.19-32.73,20.66-11.83,104.88-56.61,104.91-57.08.09,0,1.12-.8,1.54-1.11q-.09,7.83-.19,15.66c-11.08,7.2-23,13.19-34.58,19.47Q1387.93,1607.56,1369.91,1617.14Z"/><path class="cls-3" d="M1222.09,353.27c-10-1.6-19.17-6.37-28.66-9.76-14.25-5.08-34.71-6.48-42.38,9.84a1.25,1.25,0,0,0-.13.54c-.26.39-.53.79-.77,1.19q-2.46,4.13-4.91,8.24l-9.69,16.22a1.13,1.13,0,0,0-.14.89c-3.81,6.09-7.44,12.3-11.07,18.55a0,0,0,0,0,0,0,8.27,8.27,0,0,0-4.12-2.27c-3.18-1.2-6.83-.58-10.06,1a1.21,1.21,0,0,0-1.47.19,13.27,13.27,0,0,0-.83,1.14,17.47,17.47,0,0,0-4.59,4.37,15.3,15.3,0,0,0,1.21,18.73,1.18,1.18,0,0,0,.13.79,2.78,2.78,0,0,0,2.48,1.43c5.57,3.56,13.56,2.78,17.86-2.51a18.91,18.91,0,0,0,3.8-8.19c10.24-18.4,17.37-38.6,30.58-55.18,9.44-4.83,21.32-2.37,31.21.91,6.23,2.07,12.35,4.52,18.77,6a53.87,53.87,0,0,0,8,1.47l-19.36,32.91a17.67,17.67,0,0,0-2.54-2,1.06,1.06,0,0,0-.58-.66,16.46,16.46,0,0,0-22.46,21.82,16.13,16.13,0,0,0,6,6.47c1.24,1.32,2.86,2.47,4.59,2a15.72,15.72,0,0,0,6.25.48,16.42,16.42,0,0,0,9.22-4.7,1,1,0,0,0,1.13-.61c.34-.69.71-1.36,1-2.05a16.48,16.48,0,0,0,1.77-3.41,553.51,553.51,0,0,1,32.75-56,1.06,1.06,0,0,0,.18-.76,1,1,0,0,0,.45-.5C1239.19,352.23,1225.5,353.82,1222.09,353.27Zm-115.38,65a17.88,17.88,0,0,1-2-8.24,12.88,12.88,0,0,0,2.07,6.27,1.85,1.85,0,0,0,.45.4C1107.08,417.18,1106.9,417.7,1106.71,418.22Zm6.8,1.12a11.11,11.11,0,0,1-2.11-1.61,10.9,10.9,0,0,0,.31-1.61,3.74,3.74,0,0,0,.54.17,19.37,19.37,0,0,0,1.38,2.82A2.53,2.53,0,0,0,1113.51,419.34Zm2.82-18.45c0,.14,0,.27,0,.41a8,8,0,0,0-1.69.55,5.76,5.76,0,0,0-1.82-.74,13.25,13.25,0,0,0-.87-1.45,13.18,13.18,0,0,1,5-1A7.19,7.19,0,0,0,1116.33,400.89Zm10,12c-.48.84-1,1.68-1.46,2.52l0-.69a25.18,25.18,0,0,0-.23-4.29,9.08,9.08,0,0,0-.12-6.13,6.17,6.17,0,0,0-2.15-2.6A13.78,13.78,0,0,0,1121,400l.08.05a1.29,1.29,0,0,0,.87.28c.17.13.36.26.51.39a11.14,11.14,0,0,1,3.43,5,1.47,1.47,0,0,1-.1.22,1.34,1.34,0,0,0,.62,1.72c-.13.22-.24.44-.37.66a1.19,1.19,0,0,0,.55,1.7A17.52,17.52,0,0,1,1126.33,412.91Zm.93-10.23c-.11-.19-.25-.36-.37-.54a1.34,1.34,0,0,0,.86-.8,83,83,0,0,1,7-14.74C1132.22,391.94,1129.68,397.28,1127.26,402.68Zm50.5,16.77a2.37,2.37,0,0,1-.41-.17,13.52,13.52,0,0,1-1.11-4.21c0-.05,0-.16,0-.24a3.51,3.51,0,0,0,1,.85,11.86,11.86,0,0,0,.63,2.46c.06.41.14.83.23,1.27A1,1,0,0,1,1177.76,419.45Zm1.13-18.58a5.17,5.17,0,0,0-2.51,2,6,6,0,0,0-1.4,3.47,12.06,12.06,0,0,0-.22,2.36h0a6.72,6.72,0,0,0-1.18.06h0a14.43,14.43,0,0,1,2.21-5.29,13,13,0,0,1,6-4.65,4.36,4.36,0,0,0,.35,2.58A2.93,2.93,0,0,0,1178.89,400.87Zm10.8,10.42a1.31,1.31,0,0,0-1.37.62,3.42,3.42,0,0,0-1.23-.41q.44-1.5,1-3l.15.17a1.16,1.16,0,0,0,.9.36,9.14,9.14,0,0,0,.59,2.18S1189.71,411.28,1189.69,411.29ZM1186,344.81a1.2,1.2,0,0,0,.47.48c.61.32,1.24.6,1.86.92a1.19,1.19,0,0,0,.41.25l.35.12a160,160,0,0,0,15.16,6.85,1.08,1.08,0,0,0,1.45-.79c.32.12.64.28,1,.4a1.24,1.24,0,0,0-.77,1.52c-.26-.05-.51-.13-.79-.17h-.06c-4-1.81-8.14-3.49-12.28-5.07l-6.12-2.53c-2-.89-4.07-1.74-6.14-2.54a1,1,0,0,0-1.44.78c-.66-.13-1.32-.26-2-.36.27-.05.55-.07.82-.14s2.28-.94,2.52-1c1.76-.24,3.24.44,4.88,1ZM1175.16,351a1.1,1.1,0,0,0-.68-.27l-2.58-.06a1.51,1.51,0,0,0-.06-.52,18.79,18.79,0,0,0,3.1,0,1.24,1.24,0,0,0,.9-.56c1.38.37,2.76.78,4.14,1.17a1.47,1.47,0,0,0-.08.51Zm35.95,12.23a1.35,1.35,0,0,0,.34-.81c1.35.45,2.69,1,4,1.38a1.14,1.14,0,0,0,1.39-.61l2.06.78h0c-.08.15-.17.3-.26.45A34.39,34.39,0,0,1,1211.11,363.26Zm-7.9,46.78c0-.25-.1-.5-.14-.75l.36-.7.68-1.06a1.14,1.14,0,0,0,.18-.66l.42-.81c3-5,6-10,8.91-15a1.1,1.1,0,0,0,.13-.4l0-.05c.46-.83,1-1.64,1.42-2.46,1.9-3.05,3.71-6.15,5.46-9.29.64-1,1.3-2.08,2-3.12l.46-.43Q1212.55,392.31,1203.21,410Zm30.39-51.45a1.21,1.21,0,0,0-.07.81,1.12,1.12,0,0,0-.56.44c-.42.63-.82,1.27-1.23,1.9a.48.48,0,0,0,0-.12l1.06-2.38a1.26,1.26,0,0,0-.63-2.32l-4.5.11c-.41-.31-.85-.59-1.28-.87.4,0,.8.08,1.2.09C1228.6,356.27,1234.94,355.62,1233.6,358.59Z"/><path class="cls-3" d="M2171.54,378.52a1.31,1.31,0,0,0-1.86-1.35c-4,2.05-8.42,3.63-13,3.63s-8.5-1.92-12.58-3.6c-5.1-2.11-11.83-3.56-16.48,0a1.2,1.2,0,0,0-1.31.54,402,402,0,0,0-27.23,50.4,10.42,10.42,0,0,0-4.22-4.63,10.79,10.79,0,0,0-1.62-.66,1.07,1.07,0,0,0-.36-.3,10.8,10.8,0,0,0-7.64-.95,18.1,18.1,0,0,0-11.73,5.07,9.27,9.27,0,0,0-2.53,6.74,16.48,16.48,0,0,0,.06,7.06,17,17,0,0,0,7.62,10.53,1.1,1.1,0,0,0,1.39-.12,13.22,13.22,0,0,0,11.11.25c.36-.12.73-.21,1.09-.35,6.36-2.62,10.11-8.88,13.38-14.58,8.69-15.19,17.14-30.52,25.47-45.91a9.87,9.87,0,0,1,7.24-1.08c5.31,1.1,10.31,3.22,15.77,3.64,8.25.63,18.23-3.75,17.94-13.34A1.15,1.15,0,0,0,2171.54,378.52Zm-95.16,52.29a3.35,3.35,0,0,0-.46,1.12,11.93,11.93,0,0,0-2.09,4.3,10.46,10.46,0,0,1-.24-1.08,8.65,8.65,0,0,1,1-2.86,14.34,14.34,0,0,1,1.92-2.5A4.77,4.77,0,0,0,2076.38,430.81Zm20.08,11.75a12.1,12.1,0,0,0,.33-1.72c0-.19,0-.36,0-.54a15.41,15.41,0,0,0,.75-6.5,3.71,3.71,0,0,0,0-1,5.09,5.09,0,0,0-.49-1.55,14.48,14.48,0,0,0-2.3-4.78,9.24,9.24,0,0,1,2.88,4.72,2.56,2.56,0,0,0-.11.24A1.3,1.3,0,0,0,2098,433,16.75,16.75,0,0,1,2096.46,442.56Zm18.85-39.2c-.07.09-.12.2-.19.3l-1.72,2.72a1.1,1.1,0,0,0-.81.6l-4.85,8.94c-.15.24-.33.47-.48.72q3.67-7.42,7.66-14.68a1.54,1.54,0,0,0,.81.74Zm9-16.49c-.57.83-1.16,1.65-1.66,2.53q-2.24,3.12-4.24,6.39c1.91-3.34,3.93-6.62,5.92-9.91A2.36,2.36,0,0,0,2124.29,386.87Z"/><path class="cls-3" d="M1818.58,257.68a1.15,1.15,0,0,0-.85-.81,1.23,1.23,0,0,0-1.5-1,40.3,40.3,0,0,1-18,.18c-6-1.34-10.92-4.34-16.22-7.36-3.94-2.24-8.41-3.74-12.81-1.92a14.28,14.28,0,0,0-6.76,6.22,1.07,1.07,0,0,0-.46.44c-9,15-17.35,30.54-25,46.33l-.24.36a1.2,1.2,0,0,0-.2.53c-.67,1.4-1.38,2.78-2,4.18-.86-3.32-3.8-5.56-7-6.42a23.6,23.6,0,0,0-6.1-.63,19,19,0,0,0-6.34.63c-3.43,1.2-6,4.46-7.51,7.65a19.09,19.09,0,0,0-1.78,10.73A15.86,15.86,0,0,0,1719,330.35a13.61,13.61,0,0,0,10.24-2.87c7.17-3.84,12.13-13.88,15.73-20.21l24.22-42.53c3.1-3,8-3.4,12.18-2.59,5.76,1.13,11.13,3.58,17,4.51,4.76.75,10.53,1.55,15.18-.15C1817.11,265.19,1819.76,261.57,1818.58,257.68Zm-102,53.93a2.71,2.71,0,0,1-1.49-1,1.26,1.26,0,0,0-.22-.39,1.15,1.15,0,0,1,0-.64,1.43,1.43,0,0,1,1-.89l.09.17c.08.14.22.25.31.38a7.9,7.9,0,0,0,.07.85,8.87,8.87,0,0,0,.41,1.52Zm2.34-4.53v0a1.23,1.23,0,0,0,.14-.31,2.66,2.66,0,0,1,2.22.56s0,.08.08.12a5.67,5.67,0,0,1-1,2A4.73,4.73,0,0,0,1718.88,307.08Zm1.6,13a11.71,11.71,0,0,0,.36-1.53h0c.46-.73.84-1.51,1.25-2.27,0,1.14,0,2.29,0,3.43A11,11,0,0,0,1720.48,320.05Zm.5-19.24a8.36,8.36,0,0,0-2.44.12c-1.45.31-3.51,1.29-4.07,2.79a2.81,2.81,0,0,0-.1,1l-.51.42a10,10,0,0,0-4.12,1.93,15.26,15.26,0,0,1,3.44-4.69c2.86-2.58,7.17-2.29,10.77-2a14.65,14.65,0,0,1,2.06.31s0,0,0,.05c0,.32,0,.64,0,1A11.65,11.65,0,0,0,1721,300.81Zm11.62,7.87a11.76,11.76,0,0,0-2-3.7,11.52,11.52,0,0,0-2-1.81l0-.48a9.33,9.33,0,0,1,4.41,5.21C1732.85,308.16,1732.73,308.42,1732.6,308.68Zm19.54-19.05,13.08-23.21a1.2,1.2,0,0,0,0,.2Z"/><path class="cls-3" d="M1963.24,494.47a6.89,6.89,0,0,0-.1-.76,1.1,1.1,0,0,0-1.67-.74,1,1,0,0,0-.72,0c-9.76,3.48-20,4.49-30.32,4.24-5-.12-10.41-.1-15.28-1.31a105,105,0,0,1-10.18-3.56l-.06,0a1.35,1.35,0,0,0-.54-.17c-.81-.28-1.61-.56-2.44-.8-6.08-1.73-13.52-3.61-20.53-3.79a1,1,0,0,0-.68,0,33.7,33.7,0,0,0-5.55.35c-.39,0-.77.08-1.16.12a1,1,0,0,0-.66.06,21.91,21.91,0,0,0-3.8.68,13.47,13.47,0,0,0-7.07,5.28s-.06,0-.09.09l-.17.25c-.47.65-.91,1.34-1.33,2Q1837.21,533,1813,569.28c-.89,1.34,1.27,2.59,2.15,1.26l.42-.64a1,1,0,0,0,.56.8c-.09.16-.16.34-.25.51a1.26,1.26,0,0,0,1.32,1.84c-.33.8-.61,1.61-1,2.4a1.34,1.34,0,0,0,1.17,1.88c-.19.44-.42.86-.59,1.3,0,0,0,.1-.08.14h0c0,.11-.09.2-.13.3-.52,1.34,1.58,2.15,2.27,1,.07-.12.12-.24.18-.36a1.34,1.34,0,0,0,.8,1.06c-4.26,6.92-10,13.18-18.57,13.9-1.58.13-1.6,2.62,0,2.49,8.12-.68,14.45-5.82,19-12.34,5.77-8.32,9.56-17.81,15.37-26.16,12.51-18,23.74-36.67,34.68-55.66a.15.15,0,0,0,0-.09l.51-.37.44-.23a1,1,0,0,0,.31-.26,14.71,14.71,0,0,1,1.53-.88,5.28,5.28,0,0,1,.75-.29c4.37-.91,9.58.89,13.57,2.37,5.68,2.11,11.23,4.59,17,6.37a46.47,46.47,0,0,0,12.72,2.07,33.24,33.24,0,0,0,3.46.07c7.37.6,15.06-1.86,22.16-3.77a.67.67,0,0,0,.09.14l-13.41,28c-.69,1.19-1.36,2.39-2.06,3.58-3.7,6.31-8.33,12.41-12.18,18.84a17.62,17.62,0,0,0-9.85-4.3,1.06,1.06,0,0,0-.61.11,17.87,17.87,0,0,0-13.76,3.78c-5.76,4.73-10.31,12.24-7.72,19.8a17.82,17.82,0,0,0,16,11.8c7,.46,16.25-2.74,19.93-9.15a18.26,18.26,0,0,0,1.77-2.78,261.11,261.11,0,0,0,14.72-25.27c.27-.55.49-1.11.75-1.65a161.82,161.82,0,0,0,15.58-28.2,1.24,1.24,0,0,0,.08-.68c1.59-3,3.05-6.06,4.57-9.07,2.24-4.42,4.94-8.83,6.78-13.43C1964.1,497.85,1964.58,495.76,1963.24,494.47Zm-23.37,10.44a1.56,1.56,0,0,0-.41.06c-.22.09-.45.16-.67.24a1.17,1.17,0,0,0-.61,0q-3,1-6.15,1.83a.7.7,0,0,0-.14,0c-.56,0-1.1,0-1.65.06,0-.06-.12-.09-.16-.15l4.53-1a3.35,3.35,0,0,0,1.73-.39l1.08-.23a1.07,1.07,0,0,0,.79-.63l.65-.16c1-.22,2-.42,3-.63A19.85,19.85,0,0,1,1939.87,504.91Zm-36.19,77.68a6.08,6.08,0,0,1-1.31.75,4.57,4.57,0,0,0,1-1.52,1.29,1.29,0,0,0,.16-.18,33.43,33.43,0,0,0,1.86-3.38,13.3,13.3,0,0,0,.14,2.35A7.7,7.7,0,0,1,1903.68,582.59Z"/><path class="cls-3" d="M1795.52,770.15c-12.19-1.95-23.28-7.74-34.8-11.85-17.3-6.17-42.14-7.87-51.45,11.94a1.82,1.82,0,0,0-.16.65c-.31.48-.64,1-.93,1.45l-6,10L1690.45,802a1.34,1.34,0,0,0-.16,1.08c-4.63,7.39-9,14.93-13.45,22.51,0,0,0,0,0,0a10.08,10.08,0,0,0-5-2.76c-3.87-1.45-8.3-.7-12.23,1.21a1.47,1.47,0,0,0-1.78.23c-.38.42-.66.92-1,1.38a21.43,21.43,0,0,0-5.57,5.3,18.59,18.59,0,0,0,1.48,22.75,1.41,1.41,0,0,0,.15,1,3.32,3.32,0,0,0,3,1.73c6.77,4.33,16.47,3.38,21.68-3a23,23,0,0,0,4.62-9.95c12.42-22.33,21.09-46.86,37.13-67,11.45-5.86,25.87-2.88,37.88,1.11,7.56,2.51,15,5.48,22.78,7.25a65.66,65.66,0,0,0,9.7,1.8l-23.5,40a19.75,19.75,0,0,0-3.09-2.44,1.28,1.28,0,0,0-.69-.81,20,20,0,0,0-27.27,26.49,19.54,19.54,0,0,0,7.29,7.85c1.52,1.6,3.47,3,5.58,2.43a19.29,19.29,0,0,0,7.59.59,20,20,0,0,0,11.19-5.71,1.25,1.25,0,0,0,1.37-.74c.41-.83.86-1.65,1.28-2.49a19.82,19.82,0,0,0,2.14-4.14,672.88,672.88,0,0,1,39.76-68,1.28,1.28,0,0,0,.22-.93,1.3,1.3,0,0,0,.55-.6C1816.28,768.88,1799.66,770.8,1795.52,770.15ZM1655.44,849a21.72,21.72,0,0,1-2.4-10c.27,2.49.93,5.6,2.52,7.61a2,2,0,0,0,.54.48C1655.89,847.73,1655.68,848.36,1655.44,849Zm8.25,1.36a13.89,13.89,0,0,1-2.55-2,14.41,14.41,0,0,0,.37-2,4.2,4.2,0,0,0,.66.21,24,24,0,0,0,1.67,3.42C1663.8,850.17,1663.74,850.25,1663.69,850.35Zm3.43-22.4c0,.17,0,.33,0,.5a9,9,0,0,0-2.06.67,7.09,7.09,0,0,0-2.21-.9,14.93,14.93,0,0,0-1.06-1.76,16,16,0,0,1,6.13-1.22A9.11,9.11,0,0,0,1667.12,828Zm12.14,14.59c-.58,1-1.18,2.05-1.78,3.06,0-.28,0-.56,0-.83a29.4,29.4,0,0,0-.28-5.21,11,11,0,0,0-.14-7.45,7.43,7.43,0,0,0-2.62-3.15,17.1,17.1,0,0,0-1.67-2.14l.09.06a1.56,1.56,0,0,0,1.06.35c.2.16.43.31.61.47a13.44,13.44,0,0,1,4.17,6l-.12.26a1.62,1.62,0,0,0,.75,2.09c-.15.26-.29.53-.44.8a1.44,1.44,0,0,0,.66,2.06A20.76,20.76,0,0,1,1679.26,842.54Zm1.13-12.42c-.13-.22-.3-.43-.44-.65a1.67,1.67,0,0,0,1-1c2.41-6.12,4.94-12.36,8.53-17.89C1686.41,817.08,1683.33,823.57,1680.39,830.12Zm61.31,20.37a3.16,3.16,0,0,1-.5-.22,16,16,0,0,1-1.34-5.1c0-.06,0-.2,0-.29a4.26,4.26,0,0,0,1.26,1,14,14,0,0,0,.77,3c.07.5.16,1,.27,1.54A1.44,1.44,0,0,1,1741.7,850.49Zm1.37-22.57a6.32,6.32,0,0,0-3,2.48,7.17,7.17,0,0,0-1.7,4.22,13.49,13.49,0,0,0-.27,2.86h0a9.72,9.72,0,0,0-1.43.08h0a17.67,17.67,0,0,1,2.68-6.43,15.79,15.79,0,0,1,7.29-5.64,5.25,5.25,0,0,0,.42,3.13A3.58,3.58,0,0,0,1743.07,827.92Zm13.12,12.66a1.59,1.59,0,0,0-1.67.75,4.26,4.26,0,0,0-1.5-.5c.35-1.21.76-2.41,1.2-3.6l.19.21a1.42,1.42,0,0,0,1.09.43,10.62,10.62,0,0,0,.72,2.65S1756.2,840.56,1756.19,840.58Zm-4.48-80.7a1.36,1.36,0,0,0,.57.57c.74.4,1.51.73,2.26,1.12a1.55,1.55,0,0,0,.5.3l.42.15a193.51,193.51,0,0,0,18.4,8.31,1.31,1.31,0,0,0,1.77-1c.39.15.77.35,1.17.49a1.51,1.51,0,0,0-.94,1.85c-.32-.06-.63-.16-.95-.21h-.08c-4.91-2.2-9.89-4.23-14.91-6.15l-7.43-3.08q-3.69-1.62-7.46-3.08a1.25,1.25,0,0,0-1.75.95c-.8-.15-1.6-.31-2.4-.44.33-.06.67-.08,1-.17s2.76-1.14,3-1.18c2.14-.29,3.93.54,5.93,1.21Zm-13.17,7.55a1.42,1.42,0,0,0-.82-.34l-3.13-.07a1.61,1.61,0,0,0-.08-.62,23.51,23.51,0,0,0,3.76,0,1.5,1.5,0,0,0,1.09-.68c1.69.45,3.35.94,5,1.42a1.64,1.64,0,0,0-.09.62Zm43.65,14.84a1.67,1.67,0,0,0,.41-1c1.64.55,3.26,1.16,4.92,1.67a1.36,1.36,0,0,0,1.68-.74l2.51.95h0l-.32.54A41,41,0,0,1,1782.19,782.27Zm-9.6,56.79c0-.31-.11-.6-.17-.91l.44-.85.82-1.29a1.4,1.4,0,0,0,.23-.79l.5-1c3.71-6,7.34-12.08,10.82-18.24a1.69,1.69,0,0,0,.16-.48s0,0,0-.07c.57-1,1.17-2,1.74-3q3.43-5.55,6.62-11.26c.78-1.28,1.58-2.53,2.37-3.8.18-.18.38-.34.55-.52Q1783.93,817.53,1772.59,839.06Zm36.9-62.46a1.47,1.47,0,0,0-.09,1,1.5,1.5,0,0,0-.68.54c-.51.76-1,1.54-1.49,2.31,0,0,0-.1,0-.15l1.28-2.89a1.53,1.53,0,0,0-.76-2.82l-5.46.14c-.5-.39-1-.72-1.56-1.06.49,0,1,.1,1.46.11C1803.42,773.78,1811.12,773,1809.49,776.6Z"/><path class="cls-7" d="M605.12,888.86c-28.69,0-55.76-9.66-80.85-28.9-33-25.33-60.41-57.35-86.9-88.32-33.74-39.44-61.34-84.75-79.8-131-20.95-52.5-29.24-103.19-24.64-150.66h0a213.3,213.3,0,0,1,29.53-89.74c17.24-28.35,40.61-50.37,67.59-63.7,25.24-12.46,52.72-17.35,76.27-20.5,26.61-3.55,57.85-6.06,87.79,2.19,57.9,15.94,99.27,69.74,129.47,109,4.22,5.49,8.84,11.16,13.73,17.17C757.38,469,780.13,497,785.83,525.62c8.58,43.1,13.81,83.66,15.13,117.3a257.43,257.43,0,0,1-63.71,178.84c-25.72,29.1-56.31,49.86-88.48,60A144.65,144.65,0,0,1,605.12,888.86ZM334.59,490.1l1.65.16c-8.61,88.9,30.13,193.28,103.65,279.22,26.38,30.84,53.66,62.73,86.4,87.84,36.57,28,77.45,35.22,121.48,21.3,31.59-10,61.67-30.41,87-59.06a254,254,0,0,0,62.88-176.51c-1.31-33.46-6.52-73.85-15.06-116.78-5.54-27.86-28-55.45-47.84-79.8-4.91-6-9.54-11.71-13.79-17.24C691,390.32,650.06,337,593.23,321.39c-29.37-8.09-60.19-5.6-86.47-2.1-23.28,3.11-50.43,7.94-75.24,20.19-52.26,25.81-88.77,83.58-95.28,150.78Z"/></svg>